<?xml version="1.0" encoding="us-ascii" standalone="no"?><svg xmlns="http://www.w3.org/2000/svg" xmlns:xlink="http://www.w3.org/1999/xlink" contentStyleType="text/css" height="699px" preserveAspectRatio="none" style="width:469px;height:699px;background:#FFFFFF;" version="1.1" viewBox="0 0 469 699" width="469px" zoomAndPan="magnify"><defs/><g><!--cluster client--><g id="cluster_client"><polygon fill="#FFFFFF" points="110,16,120,6,306,6,306,128,296,138,110,138,110,16" style="stroke:#008080;stroke-width:1.0;"/><line style="stroke:#008080;stroke-width:1.0;" x1="296" x2="306" y1="16" y2="6"/><line style="stroke:#008080;stroke-width:1.0;" x1="110" x2="296" y1="16" y2="16"/><line style="stroke:#008080;stroke-width:1.0;" x1="296" x2="296" y1="16" y2="138"/><text fill="#000000" font-family="sans-serif" font-size="12" font-weight="bold" lengthAdjust="spacing" textLength="100" x="154" y="36.8281">Poste Utilisateur</text></g><!--cluster server--><g id="cluster_server"><polygon fill="#FFFFFF" points="112,208,122,198,449,198,449,474,439,484,112,484,112,208" style="stroke:#008080;stroke-width:1.0;"/><line style="stroke:#008080;stroke-width:1.0;" x1="439" x2="449" y1="208" y2="198"/><line style="stroke:#008080;stroke-width:1.0;" x1="112" x2="439" y1="208" y2="208"/><line style="stroke:#008080;stroke-width:1.0;" x1="439" x2="439" y1="208" y2="484"/><text fill="#000000" font-family="sans-serif" font-size="12" font-weight="bold" lengthAdjust="spacing" textLength="251" x="151" y="228.8281">Serveur d'Application (Cloud/On-premise)</text></g><!--cluster db_server--><g id="cluster_db_server"><polygon fill="#FFFFFF" points="198,554,208,544,452,544,452,672,442,682,198,682,198,554" style="stroke:#008080;stroke-width:1.0;"/><line style="stroke:#008080;stroke-width:1.0;" x1="442" x2="452" y1="554" y2="544"/><line style="stroke:#008080;stroke-width:1.0;" x1="198" x2="442" y1="554" y2="554"/><line style="stroke:#008080;stroke-width:1.0;" x1="442" x2="442" y1="554" y2="682"/><text fill="#000000" font-family="sans-serif" font-size="12" font-weight="bold" lengthAdjust="spacing" textLength="168" x="237" y="574.8281">Serveur de Base de Donn&#233;es</text></g><!--entity browser--><g id="elem_browser"><rect fill="#F1F1F1" height="65.6882" rx="4" ry="4" style="stroke:#181818;stroke-width:0.5;" width="163" x="126.5" y="56"/><polygon fill="#F1F1F1" points="272.5,61,272.5,75,284.5,75,284.5,67,278.5,61,272.5,61" style="stroke:#181818;stroke-width:0.5;"/><line style="stroke:#181818;stroke-width:0.5;" x1="278.5" x2="278.5" y1="61" y2="67"/><line style="stroke:#181818;stroke-width:0.5;" x1="284.5" x2="278.5" y1="67" y2="67"/><text fill="#000000" font-family="sans-serif" font-size="12" lengthAdjust="spacing" textLength="90" x="141.5" y="86.8281">Navigateur Web</text><text fill="#000000" font-family="sans-serif" font-size="12" lengthAdjust="spacing" textLength="123" x="141.5" y="103.1722">(Chrome, Firefox, etc.)</text></g><!--entity front--><g id="elem_front"><rect fill="#F1F1F1" height="65.6882" rx="4" ry="4" style="stroke:#181818;stroke-width:0.5;" width="155" x="130.5" y="248"/><polygon fill="#F1F1F1" points="268.5,253,268.5,267,280.5,267,280.5,259,274.5,253,268.5,253" style="stroke:#181818;stroke-width:0.5;"/><line style="stroke:#181818;stroke-width:0.5;" x1="274.5" x2="274.5" y1="253" y2="259"/><line style="stroke:#181818;stroke-width:0.5;" x1="280.5" x2="274.5" y1="259" y2="259"/><text fill="#000000" font-family="sans-serif" font-size="12" lengthAdjust="spacing" textLength="115" x="145.5" y="278.8281">Application Frontend</text><text fill="#000000" font-family="sans-serif" font-size="12" lengthAdjust="spacing" textLength="82" x="145.5" y="295.1722">(Build React.js)</text></g><!--entity back--><g id="elem_back"><rect fill="#F1F1F1" height="65.6882" rx="4" ry="4" style="stroke:#181818;stroke-width:0.5;" width="153" x="131.5" y="402"/><polygon fill="#F1F1F1" points="267.5,407,267.5,421,279.5,421,279.5,413,273.5,407,267.5,407" style="stroke:#181818;stroke-width:0.5;"/><line style="stroke:#181818;stroke-width:0.5;" x1="273.5" x2="273.5" y1="407" y2="413"/><line style="stroke:#181818;stroke-width:0.5;" x1="279.5" x2="273.5" y1="413" y2="413"/><text fill="#000000" font-family="sans-serif" font-size="12" lengthAdjust="spacing" textLength="113" x="146.5" y="432.8281">Application Backend</text><text fill="#000000" font-family="sans-serif" font-size="12" lengthAdjust="spacing" textLength="94" x="146.5" y="449.1722">(JAR Spring Boot)</text></g><!--entity mysql--><g id="elem_mysql"><path d="M215,604 C215,594 304,594 304,594 C304,594 393,594 393,604 L393,655.6882 C393,665.6882 304,665.6882 304,665.6882 C304,665.6882 215,665.6882 215,655.6882 L215,604 " fill="#F8F9FA" style="stroke:#008080;stroke-width:0.5;"/><path d="M215,604 C215,614 304,614 304,614 C304,614 393,614 393,604 " fill="none" style="stroke:#008080;stroke-width:0.5;"/><text fill="#000000" font-family="sans-serif" font-size="12" lengthAdjust="spacing" textLength="128" x="230" y="635.8281">Syst&#232;me de Gestion de</text><text fill="#000000" font-family="sans-serif" font-size="12" lengthAdjust="spacing" textLength="148" x="230" y="652.1722">Base de Donn&#233;es (MySQL)</text></g><!--entity smtp--><g id="elem_smtp"><polygon fill="#F1F1F1" points="16,612,26,602,180,602,180,648.3441,170,658.3441,16,658.3441,16,612" style="stroke:#181818;stroke-width:0.5;"/><line style="stroke:#181818;stroke-width:0.5;" x1="170" x2="180" y1="612" y2="602"/><line style="stroke:#181818;stroke-width:0.5;" x1="16" x2="170" y1="612" y2="612"/><line style="stroke:#181818;stroke-width:0.5;" x1="170" x2="170" y1="612" y2="658.3441"/><text fill="#000000" font-family="sans-serif" font-size="12" lengthAdjust="spacing" textLength="114" x="36" y="639.8281">Serveur Mail (SMTP)</text></g><!--link browser to front--><g id="link_browser_front"><path d="M208,122.23 C208,157.28 208,212.95 208,247.93 " fill="none" id="browser-front" style="stroke:#008080;stroke-width:1.0;"/><text fill="#008080" font-family="sans-serif" font-size="12" lengthAdjust="spacing" textLength="71" x="214" y="172.8281">HTTP/HTTPS</text></g><!--link front to back--><g id="link_front_back"><path d="M208,314.24 C208,340.03 208,376.03 208,401.81 " fill="none" id="front-back" style="stroke:#008080;stroke-width:1.0;"/><text fill="#008080" font-family="sans-serif" font-size="12" lengthAdjust="spacing" textLength="50" x="214" y="362.8281">REST API</text></g><!--link back to mysql--><g id="link_back_mysql"><path d="M224.07,468.3 C241.36,503.07 268.78,558.19 286.58,593.98 " fill="none" id="back-mysql" style="stroke:#008080;stroke-width:1.0;"/><text fill="#008080" font-family="sans-serif" font-size="12" lengthAdjust="spacing" textLength="54" x="260" y="518.8281">JDBC/SQL</text></g><!--link back to smtp--><g id="link_back_smtp"><path d="M139.85,468.08 C127.74,476.78 116.59,487.37 109,500 C90.31,531.12 90.82,574.31 93.75,601.96 " fill="none" id="back-smtp" style="stroke:#008080;stroke-width:1.0;"/><text fill="#008080" font-family="sans-serif" font-size="12" lengthAdjust="spacing" textLength="113" x="115" y="518.8281">SMTP (Notifications)</text></g><!--SRC=[VL3BJiCm4BpdAvPSIAMclVVMj1IeQ0bD49TAo4ashS6nW-qKAiJ_m7Vqnx2TW7W97spjpipEU8yeprbJ8DHDnKAznGh3kiI1BJsF2uFuiL0QuLfJHXNHs4WVY8ASKUGQdZqmXqXDIv9hy9TaHpUE1JUOhNamsKfHOHzcL68fdlg0EX_qt8XCYaU5qdlvS4fGxgooE1xNDQCvqLHm22PCDCNmaeUrn8egRDNAakMl05-LCocuHbwO6553MG4hD9p1dMedb1R-HnwH_BvLpyShI6f9-GOY8NGNty1_P4UZKsZVgU3yy8RAiOlizblYWcYIMQAVx9K-l5PESehAMHUuvZ_7GB3O9rSNhNcrLm_ij_k2K0P1iaZZRacLhesXuNNBXZ1i_mqZE4lJU6Yln6jR1hEVCj3g94bX79zxhZPzvsU0-JIQ34sAJy0vZC1QGh0KPe_T-bJFUmS0]--></g></svg>