<?xml version="1.0" encoding="UTF-8" standalone="no"?><svg xmlns="http://www.w3.org/2000/svg" xmlns:xlink="http://www.w3.org/1999/xlink" contentScriptType="application/ecmascript" contentStyleType="text/css" height="449px" preserveAspectRatio="none" style="width:939px;height:449px;" version="1.1" viewBox="0 0 939 449" width="939px" zoomAndPan="magnify"><defs/><g><!--MD5=[f3cf595da20ac3afc0e203413ad87bbd]
cluster Espace Public--><rect fill="#FFFFFF" height="107" rx="4" ry="4" style="stroke: #008080; stroke-width: 1.5;" width="170" x="415" y="24"/><text fill="#000000" font-family="sans-serif" font-size="12" font-weight="bold" lengthAdjust="spacingAndGlyphs" textLength="82" x="459" y="43.8281">Espace Public</text><!--MD5=[fb4684aff72b13245d542518b5aaa1e6]
cluster Tableaux de bord--><rect fill="#FFFFFF" height="107" rx="4" ry="4" style="stroke: #008080; stroke-width: 1.5;" width="899" x="29" y="191"/><text fill="#000000" font-family="sans-serif" font-size="12" font-weight="bold" lengthAdjust="spacingAndGlyphs" textLength="104" x="426.5" y="210.8281">Tableaux de bord</text><!--MD5=[cdfd548b3455e70392372b1f27091970]
cluster Services--><rect fill="#FFFFFF" height="107" rx="4" ry="4" style="stroke: #008080; stroke-width: 1.5;" width="881" x="22" y="331"/><text fill="#000000" font-family="sans-serif" font-size="12" font-weight="bold" lengthAdjust="spacingAndGlyphs" textLength="49" x="438" y="350.8281">Services</text><!--MD5=[23689a62b5e80204d759960f89ec0344]
entity Login--><rect fill="#F8F9FA" height="46.3441" rx="4" ry="4" style="stroke: #008080; stroke-width: 1.5;" width="137" x="431.5" y="69"/><rect fill="#F8F9FA" height="5" style="stroke: #008080; stroke-width: 1.5;" width="10" x="426.5" y="74"/><rect fill="#F8F9FA" height="5" style="stroke: #008080; stroke-width: 1.5;" width="10" x="426.5" y="105.3441"/><text fill="#000000" font-family="sans-serif" font-size="12" lengthAdjust="spacingAndGlyphs" textLength="107" x="446.5" y="96.8281">Page de Connexion</text><!--MD5=[790369873b53296f25dbb25bb3e756dc]
entity AdminDB--><rect fill="#F8F9FA" height="46.3441" rx="4" ry="4" style="stroke: #008080; stroke-width: 1.5;" width="208" x="45" y="236"/><rect fill="#F8F9FA" height="5" style="stroke: #008080; stroke-width: 1.5;" width="10" x="40" y="241"/><rect fill="#F8F9FA" height="5" style="stroke: #008080; stroke-width: 1.5;" width="10" x="40" y="272.3441"/><text fill="#000000" font-family="sans-serif" font-size="12" lengthAdjust="spacingAndGlyphs" textLength="178" x="60" y="263.8281">Tableau de bord Administrateur</text><!--MD5=[4bfa6c897861e28bab818fcf7c8b2e12]
entity CoordDB--><rect fill="#F8F9FA" height="46.3441" rx="4" ry="4" style="stroke: #008080; stroke-width: 1.5;" width="198" x="288" y="236"/><rect fill="#F8F9FA" height="5" style="stroke: #008080; stroke-width: 1.5;" width="10" x="283" y="241"/><rect fill="#F8F9FA" height="5" style="stroke: #008080; stroke-width: 1.5;" width="10" x="283" y="272.3441"/><text fill="#000000" font-family="sans-serif" font-size="12" lengthAdjust="spacingAndGlyphs" textLength="168" x="303" y="263.8281">Tableau de bord Coordinateur</text><!--MD5=[705f9eef0af4ed54308a464585f53f3e]
entity ProfDB--><rect fill="#F8F9FA" height="46.3441" rx="4" ry="4" style="stroke: #008080; stroke-width: 1.5;" width="186" x="521" y="236"/><rect fill="#F8F9FA" height="5" style="stroke: #008080; stroke-width: 1.5;" width="10" x="516" y="241"/><rect fill="#F8F9FA" height="5" style="stroke: #008080; stroke-width: 1.5;" width="10" x="516" y="272.3441"/><text fill="#000000" font-family="sans-serif" font-size="12" lengthAdjust="spacingAndGlyphs" textLength="156" x="536" y="263.8281">Tableau de bord Enseignant</text><!--MD5=[fbf6d19ebd72cd8659d4fb7aee2098c1]
entity StudentDB--><rect fill="#F8F9FA" height="46.3441" rx="4" ry="4" style="stroke: #008080; stroke-width: 1.5;" width="170" x="742" y="236"/><rect fill="#F8F9FA" height="5" style="stroke: #008080; stroke-width: 1.5;" width="10" x="737" y="241"/><rect fill="#F8F9FA" height="5" style="stroke: #008080; stroke-width: 1.5;" width="10" x="737" y="272.3441"/><text fill="#000000" font-family="sans-serif" font-size="12" lengthAdjust="spacingAndGlyphs" textLength="140" x="757" y="263.8281">Tableau de bord Étudiant</text><!--MD5=[d0cae5ff9305becd6f502d4fe4f41481]
entity S1--><rect fill="#F8F9FA" height="46.3441" rx="4" ry="4" style="stroke: #008080; stroke-width: 1.5;" width="232" x="38" y="376"/><rect fill="#F8F9FA" height="5" style="stroke: #008080; stroke-width: 1.5;" width="10" x="33" y="381"/><rect fill="#F8F9FA" height="5" style="stroke: #008080; stroke-width: 1.5;" width="10" x="33" y="412.3441"/><text fill="#000000" font-family="sans-serif" font-size="12" lengthAdjust="spacingAndGlyphs" textLength="202" x="53" y="403.8281">Service de Gestion (Comptes/Salles)</text><!--MD5=[d3395af3100fe8cebf35265100c4415f]
entity S2--><rect fill="#F8F9FA" height="46.3441" rx="4" ry="4" style="stroke: #008080; stroke-width: 1.5;" width="159" x="305.5" y="376"/><rect fill="#F8F9FA" height="5" style="stroke: #008080; stroke-width: 1.5;" width="10" x="300.5" y="381"/><rect fill="#F8F9FA" height="5" style="stroke: #008080; stroke-width: 1.5;" width="10" x="300.5" y="412.3441"/><text fill="#000000" font-family="sans-serif" font-size="12" lengthAdjust="spacingAndGlyphs" textLength="129" x="320.5" y="403.8281">Service de Planification</text><!--MD5=[6c7192638421eaf134d201765ac5db29]
entity S3--><rect fill="#F8F9FA" height="46.3441" rx="4" ry="4" style="stroke: #008080; stroke-width: 1.5;" width="142" x="500" y="376"/><rect fill="#F8F9FA" height="5" style="stroke: #008080; stroke-width: 1.5;" width="10" x="495" y="381"/><rect fill="#F8F9FA" height="5" style="stroke: #008080; stroke-width: 1.5;" width="10" x="495" y="412.3441"/><text fill="#000000" font-family="sans-serif" font-size="12" lengthAdjust="spacingAndGlyphs" textLength="112" x="515" y="403.8281">Service d'Évaluation</text><!--MD5=[01b905ebe31ca24275b86a9951c478d0]
entity S4--><rect fill="#F8F9FA" height="46.3441" rx="4" ry="4" style="stroke: #008080; stroke-width: 1.5;" width="210" x="677" y="376"/><rect fill="#F8F9FA" height="5" style="stroke: #008080; stroke-width: 1.5;" width="10" x="672" y="381"/><rect fill="#F8F9FA" height="5" style="stroke: #008080; stroke-width: 1.5;" width="10" x="672" y="412.3441"/><text fill="#000000" font-family="sans-serif" font-size="12" lengthAdjust="spacingAndGlyphs" textLength="180" x="692" y="403.8281">Service de Documentation (PDF)</text><!--MD5=[f454eddbc08e7be7161874f0e201d806]
link Login to AdminDB--><path d="M431.21,112.88 C401.76,122.13 367.26,133.98 337,147 C305.95,160.37 299.27,166.09 270,183 C242.1,199.12 211.23,218.28 187.66,233.19 " fill="none" id="Login-&gt;AdminDB" style="stroke: #008080; stroke-width: 1.0;"/><polygon fill="#008080" points="183.34,235.93,193.0852,234.5048,187.5671,233.2595,188.8124,227.7414,183.34,235.93" style="stroke: #008080; stroke-width: 1.0;"/><text fill="#008080" font-family="sans-serif" font-size="12" lengthAdjust="spacingAndGlyphs" textLength="84" x="343" y="165.8281">Administrateur</text><!--MD5=[30289a8d7c887dd90aae01448590f583]
link Login to CoordDB--><path d="M482.67,115.06 C475.22,124.74 466.51,136.31 459,147 C439.07,175.37 417.61,208.87 403.36,231.59 " fill="none" id="Login-&gt;CoordDB" style="stroke: #008080; stroke-width: 1.0;"/><polygon fill="#008080" points="400.6,235.99,408.767,230.4854,403.2538,231.7524,401.9868,226.2393,400.6,235.99" style="stroke: #008080; stroke-width: 1.0;"/><text fill="#008080" font-family="sans-serif" font-size="12" lengthAdjust="spacingAndGlyphs" textLength="74" x="465" y="165.8281">Coordinateur</text><!--MD5=[bac5844683bc2102e7a0ad5c98627319]
link Login to ProfDB--><path d="M522.08,115.23 C530.92,124.65 540.91,135.98 549,147 C569.07,174.34 588.21,208.31 600.45,231.42 " fill="none" id="Login-&gt;ProfDB" style="stroke: #008080; stroke-width: 1.0;"/><polygon fill="#008080" points="602.8,235.89,602.1388,226.0634,600.4671,231.4676,595.0629,229.7959,602.8,235.89" style="stroke: #008080; stroke-width: 1.0;"/><text fill="#008080" font-family="sans-serif" font-size="12" lengthAdjust="spacingAndGlyphs" textLength="62" x="572" y="165.8281">Enseignant</text><!--MD5=[d28065f5f439f85b7193026464f6d065]
link Login to StudentDB--><path d="M568.52,114.19 C614.48,129.87 675.44,153.58 725,183 C749.78,197.71 775.92,217.02 795.54,232.36 " fill="none" id="Login-&gt;StudentDB" style="stroke: #008080; stroke-width: 1.0;"/><polygon fill="#008080" points="799.88,235.77,795.2926,227.0548,795.9549,232.6727,790.3369,233.335,799.88,235.77" style="stroke: #008080; stroke-width: 1.0;"/><text fill="#008080" font-family="sans-serif" font-size="12" lengthAdjust="spacingAndGlyphs" textLength="46" x="713" y="165.8281">Étudiant</text><!--MD5=[577aaf4c30ae1729dfdcc5391bc3a28a]
link AdminDB to S1--><path d="M149.8,282.17 C150.68,306.31 152.08,344.94 153.02,370.87 " fill="none" id="AdminDB-&gt;S1" style="stroke: #008080; stroke-width: 1.0;"/><polygon fill="#008080" points="153.2,375.88,156.8632,366.7377,153.0144,370.8834,148.8687,367.0347,153.2,375.88" style="stroke: #008080; stroke-width: 1.0;"/><!--MD5=[bc5ee30a1092a0273b24f3641064685a]
link CoordDB to S2--><path d="M386.68,282.17 C386.33,306.31 385.77,344.94 385.39,370.87 " fill="none" id="CoordDB-&gt;S2" style="stroke: #008080; stroke-width: 1.0;"/><polygon fill="#008080" points="385.32,375.88,389.4482,366.9381,385.3914,370.8805,381.449,366.8238,385.32,375.88" style="stroke: #008080; stroke-width: 1.0;"/><!--MD5=[a874266dbbfbff26bf331b273bd75623]
link CoordDB to S4--><path d="M434.73,282.1 C455.58,290.87 480.58,300.23 504,306 C571.72,322.68 594.02,300.41 660,323 C692.99,334.3 726.46,355.73 749.97,372.8 " fill="none" id="CoordDB-&gt;S4" style="stroke: #008080; stroke-width: 1.0;"/><polygon fill="#008080" points="754.25,375.93,749.3618,367.3799,750.2193,372.9713,744.6279,373.8289,754.25,375.93" style="stroke: #008080; stroke-width: 1.0;"/><!--MD5=[4cc2734946eb492f2aedbf2be3c43318]
link ProfDB to S3--><path d="M607.09,282.17 C599.57,306.31 587.53,344.94 579.45,370.87 " fill="none" id="ProfDB-&gt;S3" style="stroke: #008080; stroke-width: 1.0;"/><polygon fill="#008080" points="577.89,375.88,584.3848,368.4761,579.3765,371.1061,576.7465,366.0977,577.89,375.88" style="stroke: #008080; stroke-width: 1.0;"/><!--MD5=[a2c5dbfe17324e85223c06d4a04cb013]
link ProfDB to S4--><path d="M640.99,282.17 C671,306.82 719.37,346.56 750.93,372.48 " fill="none" id="ProfDB-&gt;S4" style="stroke: #008080; stroke-width: 1.0;"/><polygon fill="#008080" points="755.07,375.88,750.6586,367.0743,751.2079,372.7045,745.5777,373.2538,755.07,375.88" style="stroke: #008080; stroke-width: 1.0;"/><!--MD5=[3cd824b9cc4d78612f71b3cf0fdbc0b4]
link StudentDB to S4--><path d="M819.77,282.17 C811.9,306.31 799.3,344.94 790.85,370.87 " fill="none" id="StudentDB-&gt;S4" style="stroke: #008080; stroke-width: 1.0;"/><polygon fill="#008080" points="789.21,375.88,795.7914,368.553,790.7525,371.1239,788.1817,366.085,789.21,375.88" style="stroke: #008080; stroke-width: 1.0;"/><!--MD5=[c38924dba86585d1bf6423cd47c1cbac]
@startuml

skinparam shadowing false
skinparam roundcorner 8
skinparam Padding 5
skinparam defaultFontName "SansSerif"
skinparam defaultFontSize 12

skinparam ActivityBackgroundColor #F8F9FA
skinparam ActivityBorderColor #008080
skinparam ActivityDiamondBackgroundColor #E67E22
skinparam ActivityDiamondBorderColor #E67E22
skinparam ActivityDiamondFontColor #FFFFFF

skinparam ActorBackgroundColor #F8F9FA
skinparam ActorBorderColor #008080

skinparam ClassBackgroundColor #F8F9FA
skinparam ClassBorderColor #008080
skinparam ClassHeaderBackgroundColor #008080
skinparam ClassAttributeIconSize 0

skinparam ComponentBackgroundColor #F8F9FA
skinparam ComponentBorderColor #008080

skinparam DatabaseBackgroundColor #F8F9FA
skinparam DatabaseBorderColor #008080

skinparam NoteBackgroundColor #FFF2E6
skinparam NoteBorderColor #E67E22

skinparam StateBackgroundColor #F8F9FA
skinparam StateBorderColor #008080

skinparam UsecaseBackgroundColor #F8F9FA
skinparam UsecaseBorderColor #008080

skinparam SequenceGroupBackgroundColor #F8F9FA
skinparam SequenceGroupBorderColor #008080
skinparam SequenceLifeLineBorderColor #008080
skinparam SequenceParticipantBackgroundColor #F8F9FA
skinparam SequenceParticipantBorderColor #008080
skinparam ControlBackgroundColor #F8F9FA
skinparam ControlBorderColor #008080
skinparam BoundaryBackgroundColor #F8F9FA
skinparam BoundaryBorderColor #008080
skinparam EntityBackgroundColor #F8F9FA
skinparam EntityBorderColor #008080

skinparam ArrowColor #008080
skinparam ArrowFontColor #008080

skinparam PackageBackgroundColor #FFFFFF
skinparam PackageBorderColor #008080

rectangle "Espace Public" {
    [Page de Connexion] as Login
}

rectangle "Tableaux de bord" {
    [Tableau de bord Administrateur] as AdminDB
    [Tableau de bord Coordinateur] as CoordDB
    [Tableau de bord Enseignant] as ProfDB
    [Tableau de bord Étudiant] as StudentDB
}

rectangle "Services" {
    [Service de Gestion (Comptes/Salles)] as S1
    [Service de Planification] as S2
    [Service d'Évaluation] as S3
    [Service de Documentation (PDF)] as S4
}

Login - -> AdminDB : Administrateur
Login - -> CoordDB : Coordinateur
Login - -> ProfDB : Enseignant
Login - -> StudentDB : Étudiant

AdminDB - -> S1
CoordDB - -> S2
CoordDB - -> S4
ProfDB - -> S3
ProfDB - -> S4
StudentDB - -> S4

@enduml

PlantUML version 1.2020.02(Sun Mar 01 11:22:07 WEST 2020)
(GPL source distribution)
Java Runtime: OpenJDK Runtime Environment
JVM: OpenJDK 64-Bit Server VM
Java Version: 21.0.11+10-1-24.04.2-Ubuntu
Operating System: Linux
Default Encoding: UTF-8
Language: en
Country: US
--></g></svg>