<?xml version="1.0" encoding="UTF-8" standalone="no"?><svg xmlns="http://www.w3.org/2000/svg" xmlns:xlink="http://www.w3.org/1999/xlink" contentScriptType="application/ecmascript" contentStyleType="text/css" height="1772px" preserveAspectRatio="none" style="width:1018px;height:1772px;" version="1.1" viewBox="0 0 1018 1772" width="1018px" zoomAndPan="magnify"><defs/><g><rect fill="#FEFECE" height="49.0679" rx="4" ry="4" style="stroke: #A80036; stroke-width: 1.5;" width="134" x="10" y="866.082"/><text fill="#000000" font-family="&quot;SansSerif&quot;" font-size="14" lengthAdjust="spacingAndGlyphs" textLength="104" x="25" y="896.0479">Organigramme</text><rect fill="#FEFECE" height="68.1358" rx="4" ry="4" style="stroke: #A80036; stroke-width: 1.5;" width="175" x="194" y="856.548"/><text fill="#000000" font-family="&quot;SansSerif&quot;" font-size="14" lengthAdjust="spacingAndGlyphs" textLength="42" x="209" y="886.514">Doyen</text><text fill="#000000" font-family="&quot;SansSerif&quot;" font-size="14" lengthAdjust="spacingAndGlyphs" textLength="145" x="209" y="905.5819">Pr. Mohammed TALBI</text><rect fill="#FEFECE" height="49.0679" rx="4" ry="4" style="stroke: #A80036; stroke-width: 1.5;" width="126" x="419" y="192.6698"/><text fill="#000000" font-family="&quot;SansSerif&quot;" font-size="14" lengthAdjust="spacingAndGlyphs" textLength="96" x="434" y="222.6357">Départements</text><rect fill="#FEFECE" height="49.0679" rx="4" ry="4" style="stroke: #A80036; stroke-width: 1.5;" width="198" x="595" y="20"/><text fill="#000000" font-family="&quot;SansSerif&quot;" font-size="14" lengthAdjust="spacingAndGlyphs" textLength="168" x="610" y="49.9659">Département de Biologie</text><path d="M545,217.2038 L555,217.2038 C570,217.2038 570,44.534 585,44.534 L595,44.534 " fill="none" style="stroke: #008080; stroke-width: 1.0;"/><rect fill="#FEFECE" height="49.0679" rx="4" ry="4" style="stroke: #A80036; stroke-width: 1.5;" width="191" x="595" y="89.0679"/><text fill="#000000" font-family="&quot;SansSerif&quot;" font-size="14" lengthAdjust="spacingAndGlyphs" textLength="161" x="610" y="119.0339">Département de Chimie</text><path d="M545,217.2038 L555,217.2038 C570,217.2038 570,113.6019 585,113.6019 L595,113.6019 " fill="none" style="stroke: #008080; stroke-width: 1.0;"/><rect fill="#FEFECE" height="49.0679" rx="4" ry="4" style="stroke: #A80036; stroke-width: 1.5;" width="203" x="595" y="158.1358"/><text fill="#000000" font-family="&quot;SansSerif&quot;" font-size="14" lengthAdjust="spacingAndGlyphs" textLength="173" x="610" y="188.1018">Département de Géologie</text><path d="M545,217.2038 L555,217.2038 C570,217.2038 570,182.6698 585,182.6698 L595,182.6698 " fill="none" style="stroke: #008080; stroke-width: 1.0;"/><rect fill="#FEFECE" height="49.0679" rx="4" ry="4" style="stroke: #A80036; stroke-width: 1.5;" width="321" x="595" y="227.2038"/><text fill="#000000" font-family="&quot;SansSerif&quot;" font-size="14" lengthAdjust="spacingAndGlyphs" textLength="291" x="610" y="257.1697">Département de Langue et Communication</text><path d="M545,217.2038 L555,217.2038 C570,217.2038 570,251.7377 585,251.7377 L595,251.7377 " fill="none" style="stroke: #008080; stroke-width: 1.0;"/><rect fill="#FEFECE" height="49.0679" rx="4" ry="4" style="stroke: #A80036; stroke-width: 1.5;" width="367" x="595" y="296.2717"/><text fill="#000000" font-family="&quot;SansSerif&quot;" font-size="14" lengthAdjust="spacingAndGlyphs" textLength="337" x="610" y="326.2376">Département des Mathématiques et Informatique</text><path d="M545,217.2038 L555,217.2038 C570,217.2038 570,320.8056 585,320.8056 L595,320.8056 " fill="none" style="stroke: #008080; stroke-width: 1.0;"/><rect fill="#FEFECE" height="49.0679" rx="4" ry="4" style="stroke: #A80036; stroke-width: 1.5;" width="205" x="595" y="365.3396"/><text fill="#000000" font-family="&quot;SansSerif&quot;" font-size="14" lengthAdjust="spacingAndGlyphs" textLength="175" x="610" y="395.3055">Département de Physique</text><path d="M545,217.2038 L555,217.2038 C570,217.2038 570,389.8735 585,389.8735 L595,389.8735 " fill="none" style="stroke: #008080; stroke-width: 1.0;"/><path d="M369,890.6159 L379,890.6159 C394,890.6159 394,217.2038 409,217.2038 L419,217.2038 " fill="none" style="stroke: #008080; stroke-width: 1.0;"/><rect fill="#FEFECE" height="49.0679" rx="4" ry="4" style="stroke: #A80036; stroke-width: 1.5;" width="184" x="419" y="503.4754"/><text fill="#000000" font-family="&quot;SansSerif&quot;" font-size="14" lengthAdjust="spacingAndGlyphs" textLength="154" x="434" y="533.4414">Secrétariat du Décanat</text><rect fill="#FEFECE" height="49.0679" rx="4" ry="4" style="stroke: #A80036; stroke-width: 1.5;" width="256" x="653" y="434.4075"/><text fill="#000000" font-family="&quot;SansSerif&quot;" font-size="14" lengthAdjust="spacingAndGlyphs" textLength="226" x="668" y="464.3734">Cellule Communication et Qualité</text><path d="M603,528.0094 L613,528.0094 C628,528.0094 628,458.9415 643,458.9415 L653,458.9415 " fill="none" style="stroke: #008080; stroke-width: 1.0;"/><rect fill="#FEFECE" height="49.0679" rx="4" ry="4" style="stroke: #A80036; stroke-width: 1.5;" width="196" x="653" y="503.4754"/><text fill="#000000" font-family="&quot;SansSerif&quot;" font-size="14" lengthAdjust="spacingAndGlyphs" textLength="166" x="668" y="533.4414">Commission Scientifique</text><path d="M603,528.0094 L613,528.0094 C628,528.0094 628,528.0094 643,528.0094 L653,528.0094 " fill="none" style="stroke: #008080; stroke-width: 1.0;"/><rect fill="#FEFECE" height="49.0679" rx="4" ry="4" style="stroke: #A80036; stroke-width: 1.5;" width="247" x="653" y="572.5433"/><text fill="#000000" font-family="&quot;SansSerif&quot;" font-size="14" lengthAdjust="spacingAndGlyphs" textLength="217" x="668" y="602.5093">Observatoire de la Vie Étudiante</text><path d="M603,528.0094 L613,528.0094 C628,528.0094 628,597.0773 643,597.0773 L653,597.0773 " fill="none" style="stroke: #008080; stroke-width: 1.0;"/><path d="M369,890.6159 L379,890.6159 C394,890.6159 394,528.0094 409,528.0094 L419,528.0094 " fill="none" style="stroke: #008080; stroke-width: 1.0;"/><rect fill="#FEFECE" height="49.0679" rx="4" ry="4" style="stroke: #A80036; stroke-width: 1.5;" width="163" x="419" y="745.2131"/><text fill="#000000" font-family="&quot;SansSerif&quot;" font-size="14" lengthAdjust="spacingAndGlyphs" textLength="133" x="434" y="775.1791">Chargés de Mission</text><rect fill="#FEFECE" height="49.0679" rx="4" ry="4" style="stroke: #A80036; stroke-width: 1.5;" width="107" x="632" y="641.6113"/><text fill="#000000" font-family="&quot;SansSerif&quot;" font-size="14" lengthAdjust="spacingAndGlyphs" textLength="77" x="647" y="671.5772">CM Apogée</text><path d="M582,769.7471 L592,769.7471 C607,769.7471 607,666.1452 622,666.1452 L632,666.1452 " fill="none" style="stroke: #008080; stroke-width: 1.0;"/><rect fill="#FEFECE" height="49.0679" rx="4" ry="4" style="stroke: #A80036; stroke-width: 1.5;" width="115" x="632" y="710.6792"/><text fill="#000000" font-family="&quot;SansSerif&quot;" font-size="14" lengthAdjust="spacingAndGlyphs" textLength="85" x="647" y="740.6451">CM PINTECH</text><path d="M582,769.7471 L592,769.7471 C607,769.7471 607,735.2131 622,735.2131 L632,735.2131 " fill="none" style="stroke: #008080; stroke-width: 1.0;"/><rect fill="#FEFECE" height="49.0679" rx="4" ry="4" style="stroke: #A80036; stroke-width: 1.5;" width="85" x="632" y="779.7471"/><text fill="#000000" font-family="&quot;SansSerif&quot;" font-size="14" lengthAdjust="spacingAndGlyphs" textLength="55" x="647" y="809.713">CM PE2I</text><path d="M582,769.7471 L592,769.7471 C607,769.7471 607,804.281 622,804.281 L632,804.281 " fill="none" style="stroke: #008080; stroke-width: 1.0;"/><rect fill="#FEFECE" height="49.0679" rx="4" ry="4" style="stroke: #A80036; stroke-width: 1.5;" width="325" x="632" y="848.815"/><text fill="#000000" font-family="&quot;SansSerif&quot;" font-size="14" lengthAdjust="spacingAndGlyphs" textLength="295" x="647" y="878.7809">CM Valorisation et Transfert de Technologie</text><path d="M582,769.7471 L592,769.7471 C607,769.7471 607,873.349 622,873.349 L632,873.349 " fill="none" style="stroke: #008080; stroke-width: 1.0;"/><path d="M369,890.6159 L379,890.6159 C394,890.6159 394,769.7471 409,769.7471 L419,769.7471 " fill="none" style="stroke: #008080; stroke-width: 1.0;"/><rect fill="#FEFECE" height="49.0679" rx="4" ry="4" style="stroke: #A80036; stroke-width: 1.5;" width="190" x="419" y="1021.4848"/><text fill="#000000" font-family="&quot;SansSerif&quot;" font-size="14" lengthAdjust="spacingAndGlyphs" textLength="160" x="434" y="1051.4507">Conseil d'établissement</text><rect fill="#FEFECE" height="49.0679" rx="4" ry="4" style="stroke: #A80036; stroke-width: 1.5;" width="205" x="659" y="917.8829"/><text fill="#000000" font-family="&quot;SansSerif&quot;" font-size="14" lengthAdjust="spacingAndGlyphs" textLength="175" x="674" y="947.8489">Commission Pédagogique</text><path d="M609,1046.0188 L619,1046.0188 C634,1046.0188 634,942.4169 649,942.4169 L659,942.4169 " fill="none" style="stroke: #008080; stroke-width: 1.0;"/><rect fill="#FEFECE" height="49.0679" rx="4" ry="4" style="stroke: #A80036; stroke-width: 1.5;" width="208" x="659" y="986.9508"/><text fill="#000000" font-family="&quot;SansSerif&quot;" font-size="14" lengthAdjust="spacingAndGlyphs" textLength="178" x="674" y="1016.9168">Commission de Recherche</text><path d="M609,1046.0188 L619,1046.0188 C634,1046.0188 634,1011.4848 649,1011.4848 L659,1011.4848 " fill="none" style="stroke: #008080; stroke-width: 1.0;"/><rect fill="#FEFECE" height="49.0679" rx="4" ry="4" style="stroke: #A80036; stroke-width: 1.5;" width="348" x="659" y="1056.0188"/><text fill="#000000" font-family="&quot;SansSerif&quot;" font-size="14" lengthAdjust="spacingAndGlyphs" textLength="318" x="674" y="1085.9847">Commission des Affaires Culturelles et Sociales</text><path d="M609,1046.0188 L619,1046.0188 C634,1046.0188 634,1080.5527 649,1080.5527 L659,1080.5527 " fill="none" style="stroke: #008080; stroke-width: 1.0;"/><rect fill="#FEFECE" height="49.0679" rx="4" ry="4" style="stroke: #A80036; stroke-width: 1.5;" width="243" x="659" y="1125.0867"/><text fill="#000000" font-family="&quot;SansSerif&quot;" font-size="14" lengthAdjust="spacingAndGlyphs" textLength="213" x="674" y="1155.0526">Commission de Suivi de Budget</text><path d="M609,1046.0188 L619,1046.0188 C634,1046.0188 634,1149.6206 649,1149.6206 L659,1149.6206 " fill="none" style="stroke: #008080; stroke-width: 1.0;"/><path d="M369,890.6159 L379,890.6159 C394,890.6159 394,1046.0188 409,1046.0188 L419,1046.0188 " fill="none" style="stroke: #008080; stroke-width: 1.0;"/><rect fill="#FEFECE" height="49.0679" rx="4" ry="4" style="stroke: #A80036; stroke-width: 1.5;" width="101" x="419" y="1090.5527"/><text fill="#000000" font-family="&quot;SansSerif&quot;" font-size="14" lengthAdjust="spacingAndGlyphs" textLength="71" x="434" y="1120.5186">CM ad hoc</text><path d="M369,890.6159 L379,890.6159 C394,890.6159 394,1115.0867 409,1115.0867 L419,1115.0867 " fill="none" style="stroke: #008080; stroke-width: 1.0;"/><rect fill="#FEFECE" height="49.0679" rx="4" ry="4" style="stroke: #A80036; stroke-width: 1.5;" width="198" x="419" y="1159.6206"/><text fill="#000000" font-family="&quot;SansSerif&quot;" font-size="14" lengthAdjust="spacingAndGlyphs" textLength="168" x="434" y="1189.5866">Comité d'auto-évaluation</text><path d="M369,890.6159 L379,890.6159 C394,890.6159 394,1184.1546 409,1184.1546 L419,1184.1546 " fill="none" style="stroke: #008080; stroke-width: 1.0;"/><rect fill="#FEFECE" height="49.0679" rx="4" ry="4" style="stroke: #A80036; stroke-width: 1.5;" width="258" x="419" y="1228.6885"/><text fill="#000000" font-family="&quot;SansSerif&quot;" font-size="14" lengthAdjust="spacingAndGlyphs" textLength="228" x="434" y="1258.6545">Commission de suivi des marchés</text><path d="M369,890.6159 L379,890.6159 C394,890.6159 394,1253.2225 409,1253.2225 L419,1253.2225 " fill="none" style="stroke: #008080; stroke-width: 1.0;"/><rect fill="#FEFECE" height="49.0679" rx="4" ry="4" style="stroke: #A80036; stroke-width: 1.5;" width="154" x="419" y="1297.7565"/><text fill="#000000" font-family="&quot;SansSerif&quot;" font-size="14" lengthAdjust="spacingAndGlyphs" textLength="124" x="434" y="1327.7224">Conseil de gestion</text><path d="M369,890.6159 L379,890.6159 C394,890.6159 394,1322.2904 409,1322.2904 L419,1322.2904 " fill="none" style="stroke: #008080; stroke-width: 1.0;"/><rect fill="#FEFECE" height="49.0679" rx="4" ry="4" style="stroke: #A80036; stroke-width: 1.5;" width="180" x="419" y="1366.8244"/><text fill="#000000" font-family="&quot;SansSerif&quot;" font-size="14" lengthAdjust="spacingAndGlyphs" textLength="150" x="434" y="1396.7903">Comité Smart Campus</text><path d="M369,890.6159 L379,890.6159 C394,890.6159 394,1391.3583 409,1391.3583 L419,1391.3583 " fill="none" style="stroke: #008080; stroke-width: 1.0;"/><rect fill="#FEFECE" height="49.0679" rx="4" ry="4" style="stroke: #A80036; stroke-width: 1.5;" width="192" x="419" y="1435.8923"/><text fill="#000000" font-family="&quot;SansSerif&quot;" font-size="14" lengthAdjust="spacingAndGlyphs" textLength="162" x="434" y="1465.8582">Pôle Secrétariat Général</text><rect fill="#FEFECE" height="49.0679" rx="4" ry="4" style="stroke: #A80036; stroke-width: 1.5;" width="153" x="661" y="1435.8923"/><text fill="#000000" font-family="&quot;SansSerif&quot;" font-size="14" lengthAdjust="spacingAndGlyphs" textLength="123" x="676" y="1465.8582">Dr. Abbas YAMARI</text><path d="M611,1460.4263 L621,1460.4263 C636,1460.4263 636,1460.4263 651,1460.4263 L661,1460.4263 " fill="none" style="stroke: #008080; stroke-width: 1.0;"/><path d="M369,890.6159 L379,890.6159 C394,890.6159 394,1460.4263 409,1460.4263 L419,1460.4263 " fill="none" style="stroke: #008080; stroke-width: 1.0;"/><rect fill="#FEFECE" height="49.0679" rx="4" ry="4" style="stroke: #A80036; stroke-width: 1.5;" width="214" x="419" y="1504.9602"/><text fill="#000000" font-family="&quot;SansSerif&quot;" font-size="14" lengthAdjust="spacingAndGlyphs" textLength="184" x="434" y="1534.9261">Pôle Affaires Pédagogiques</text><rect fill="#FEFECE" height="49.0679" rx="4" ry="4" style="stroke: #A80036; stroke-width: 1.5;" width="167" x="683" y="1504.9602"/><text fill="#000000" font-family="&quot;SansSerif&quot;" font-size="14" lengthAdjust="spacingAndGlyphs" textLength="137" x="698" y="1534.9261">Pr. Mohamed RADID</text><path d="M633,1529.4942 L643,1529.4942 C658,1529.4942 658,1529.4942 673,1529.4942 L683,1529.4942 " fill="none" style="stroke: #008080; stroke-width: 1.0;"/><path d="M369,890.6159 L379,890.6159 C394,890.6159 394,1529.4942 409,1529.4942 L419,1529.4942 " fill="none" style="stroke: #008080; stroke-width: 1.0;"/><rect fill="#FEFECE" height="49.0679" rx="4" ry="4" style="stroke: #A80036; stroke-width: 1.5;" width="217" x="419" y="1574.0281"/><text fill="#000000" font-family="&quot;SansSerif&quot;" font-size="14" lengthAdjust="spacingAndGlyphs" textLength="187" x="434" y="1603.9941">Pôle Recherche Scientifique</text><rect fill="#FEFECE" height="49.0679" rx="4" ry="4" style="stroke: #A80036; stroke-width: 1.5;" width="147" x="686" y="1574.0281"/><text fill="#000000" font-family="&quot;SansSerif&quot;" font-size="14" lengthAdjust="spacingAndGlyphs" textLength="117" x="701" y="1603.9941">Pr. Noura YOUSFI</text><path d="M636,1598.5621 L646,1598.5621 C661,1598.5621 661,1598.5621 676,1598.5621 L686,1598.5621 " fill="none" style="stroke: #008080; stroke-width: 1.0;"/><path d="M369,890.6159 L379,890.6159 C394,890.6159 394,1598.5621 409,1598.5621 L419,1598.5621 " fill="none" style="stroke: #008080; stroke-width: 1.0;"/><rect fill="#FEFECE" height="49.0679" rx="4" ry="4" style="stroke: #A80036; stroke-width: 1.5;" width="278" x="419" y="1643.096"/><text fill="#000000" font-family="&quot;SansSerif&quot;" font-size="14" lengthAdjust="spacingAndGlyphs" textLength="248" x="434" y="1673.062">Pôle Développement et Digitalisation</text><rect fill="#FEFECE" height="49.0679" rx="4" ry="4" style="stroke: #A80036; stroke-width: 1.5;" width="187" x="747" y="1643.096"/><text fill="#000000" font-family="&quot;SansSerif&quot;" font-size="14" lengthAdjust="spacingAndGlyphs" textLength="157" x="762" y="1673.062">Pr. Abdelwahed NAMIR</text><path d="M697,1667.63 L707,1667.63 C722,1667.63 722,1667.63 737,1667.63 L747,1667.63 " fill="none" style="stroke: #008080; stroke-width: 1.0;"/><path d="M369,890.6159 L379,890.6159 C394,890.6159 394,1667.63 409,1667.63 L419,1667.63 " fill="none" style="stroke: #008080; stroke-width: 1.0;"/><rect fill="#FEFECE" height="49.0679" rx="4" ry="4" style="stroke: #A80036; stroke-width: 1.5;" width="157" x="419" y="1712.164"/><text fill="#000000" font-family="&quot;SansSerif&quot;" font-size="14" lengthAdjust="spacingAndGlyphs" textLength="127" x="434" y="1742.1299">Services Communs</text><path d="M369,890.6159 L379,890.6159 C394,890.6159 394,1736.6979 409,1736.6979 L419,1736.6979 " fill="none" style="stroke: #008080; stroke-width: 1.0;"/><path d="M144,890.6159 L154,890.6159 C169,890.6159 169,890.6159 184,890.6159 L194,890.6159 " fill="none" style="stroke: #008080; stroke-width: 1.0;"/><!--MD5=[b54a761b38f4a93a8d35f3500fe3ac38]
@startmindmap

skinparam shadowing false
skinparam roundcorner 8
skinparam Padding 5
skinparam defaultFontName "SansSerif"
skinparam defaultFontSize 12

skinparam ActivityBackgroundColor #F8F9FA
skinparam ActivityBorderColor #008080
skinparam ActivityDiamondBackgroundColor #E67E22
skinparam ActivityDiamondBorderColor #E67E22
skinparam ActivityDiamondFontColor #FFFFFF

skinparam ActorBackgroundColor #F8F9FA
skinparam ActorBorderColor #008080

skinparam ClassBackgroundColor #F8F9FA
skinparam ClassBorderColor #008080
skinparam ClassHeaderBackgroundColor #008080
skinparam ClassAttributeIconSize 0

skinparam ComponentBackgroundColor #F8F9FA
skinparam ComponentBorderColor #008080

skinparam DatabaseBackgroundColor #F8F9FA
skinparam DatabaseBorderColor #008080

skinparam NoteBackgroundColor #FFF2E6
skinparam NoteBorderColor #E67E22

skinparam StateBackgroundColor #F8F9FA
skinparam StateBorderColor #008080

skinparam UsecaseBackgroundColor #F8F9FA
skinparam UsecaseBorderColor #008080

skinparam SequenceGroupBackgroundColor #F8F9FA
skinparam SequenceGroupBorderColor #008080
skinparam SequenceLifeLineBorderColor #008080
skinparam SequenceParticipantBackgroundColor #F8F9FA
skinparam SequenceParticipantBorderColor #008080
skinparam ControlBackgroundColor #F8F9FA
skinparam ControlBorderColor #008080
skinparam BoundaryBackgroundColor #F8F9FA
skinparam BoundaryBorderColor #008080
skinparam EntityBackgroundColor #F8F9FA
skinparam EntityBorderColor #008080

skinparam ArrowColor #008080
skinparam ArrowFontColor #008080

skinparam PackageBackgroundColor #FFFFFF
skinparam PackageBorderColor #008080
* Organigramme
** Doyen\nPr. Mohammed TALBI
*** Départements
**** Département de Biologie
**** Département de Chimie
**** Département de Géologie
**** Département de Langue et Communication
**** Département des Mathématiques et Informatique
**** Département de Physique
*** Secrétariat du Décanat
**** Cellule Communication et Qualité
**** Commission Scientifique
**** Observatoire de la Vie Étudiante
*** Chargés de Mission
**** CM Apogée
**** CM PINTECH
**** CM PE2I
**** CM Valorisation et Transfert de Technologie
*** Conseil d'établissement
**** Commission Pédagogique
**** Commission de Recherche
**** Commission des Affaires Culturelles et Sociales
**** Commission de Suivi de Budget
*** CM ad hoc
*** Comité d'auto-évaluation
*** Commission de suivi des marchés
*** Conseil de gestion
*** Comité Smart Campus
*** Pôle Secrétariat Général
**** Dr. Abbas YAMARI
*** Pôle Affaires Pédagogiques
**** Pr. Mohamed RADID
*** Pôle Recherche Scientifique
**** Pr. Noura YOUSFI
*** Pôle Développement et Digitalisation
**** Pr. Abdelwahed NAMIR
*** Services Communs
@endmindmap

PlantUML version 1.2020.02(Sun Mar 01 11:22:07 WEST 2020)
(GPL source distribution)
Java Runtime: OpenJDK Runtime Environment
JVM: OpenJDK 64-Bit Server VM
Java Version: 21.0.11+10-1-24.04.2-Ubuntu
Operating System: Linux
Default Encoding: UTF-8
Language: en
Country: US
--></g></svg>