<?xml version="1.0" encoding="us-ascii" standalone="no"?><svg xmlns="http://www.w3.org/2000/svg" xmlns:xlink="http://www.w3.org/1999/xlink" contentStyleType="text/css" height="1458px" preserveAspectRatio="none" style="width:865px;height:1458px;background:#FFFFFF;" version="1.1" viewBox="0 0 865 1458" width="865px" zoomAndPan="magnify"><defs/><g><rect fill="#008080" height="36.3441" rx="4" ry="4" style="stroke:#008080;stroke-width:1.5;" width="113" x="10" y="710.2154"/><text fill="#FFFFFF" font-family="sans-serif" font-size="12" font-weight="bold" lengthAdjust="spacing" textLength="93" x="20" y="733.0435">Organigramme</text><rect fill="#F8F9FA" height="52.6882" rx="4" ry="4" style="stroke:#008080;stroke-width:1.5;" width="142" x="173" y="702.0433"/><text fill="#000000" font-family="sans-serif" font-size="12" lengthAdjust="spacing" textLength="36" x="183" y="724.8714">Doyen</text><text fill="#000000" font-family="sans-serif" font-size="12" lengthAdjust="spacing" textLength="122" x="183" y="741.2155">Pr. Mohammed TALBI</text><rect fill="#F8F9FA" height="36.3441" rx="4" ry="4" style="stroke:#008080;stroke-width:1.5;" width="101" x="365" y="160.8603"/><text fill="#000000" font-family="sans-serif" font-size="12" lengthAdjust="spacing" textLength="81" x="375" y="183.6884">D&#233;partements</text><rect fill="#FFFFFF" height="36.3441" rx="4" ry="4" style="stroke:#008080;stroke-width:1.5;" width="160" x="516" y="20"/><text fill="#000000" font-family="sans-serif" font-size="12" lengthAdjust="spacing" textLength="140" x="526" y="42.8281">D&#233;partement de Biologie</text><path d="M466,179.0323 L476,179.0323 C491,179.0323 491,38.1721 506,38.1721 L516,38.1721 " fill="none" style="stroke:#008080;stroke-width:1.0;"/><rect fill="#FFFFFF" height="36.3441" rx="4" ry="4" style="stroke:#008080;stroke-width:1.5;" width="154" x="516" y="76.3441"/><text fill="#000000" font-family="sans-serif" font-size="12" lengthAdjust="spacing" textLength="134" x="526" y="99.1722">D&#233;partement de Chimie</text><path d="M466,179.0323 L476,179.0323 C491,179.0323 491,94.5162 506,94.5162 L516,94.5162 " fill="none" style="stroke:#008080;stroke-width:1.0;"/><rect fill="#FFFFFF" height="36.3441" rx="4" ry="4" style="stroke:#008080;stroke-width:1.5;" width="165" x="516" y="132.6882"/><text fill="#000000" font-family="sans-serif" font-size="12" lengthAdjust="spacing" textLength="145" x="526" y="155.5163">D&#233;partement de G&#233;ologie</text><path d="M466,179.0323 L476,179.0323 C491,179.0323 491,150.8603 506,150.8603 L516,150.8603 " fill="none" style="stroke:#008080;stroke-width:1.0;"/><rect fill="#FFFFFF" height="36.3441" rx="4" ry="4" style="stroke:#008080;stroke-width:1.5;" width="261" x="516" y="189.0323"/><text fill="#000000" font-family="sans-serif" font-size="12" lengthAdjust="spacing" textLength="241" x="526" y="211.8604">D&#233;partement de Langue et Communication</text><path d="M466,179.0323 L476,179.0323 C491,179.0323 491,207.2044 506,207.2044 L516,207.2044 " fill="none" style="stroke:#008080;stroke-width:1.0;"/><rect fill="#FFFFFF" height="36.3441" rx="4" ry="4" style="stroke:#008080;stroke-width:1.5;" width="299" x="516" y="245.3765"/><text fill="#000000" font-family="sans-serif" font-size="12" lengthAdjust="spacing" textLength="279" x="526" y="268.2045">D&#233;partement des Math&#233;matiques et Informatique</text><path d="M466,179.0323 L476,179.0323 C491,179.0323 491,263.5485 506,263.5485 L516,263.5485 " fill="none" style="stroke:#008080;stroke-width:1.0;"/><rect fill="#FFFFFF" height="36.3441" rx="4" ry="4" style="stroke:#008080;stroke-width:1.5;" width="165" x="516" y="301.7206"/><text fill="#000000" font-family="sans-serif" font-size="12" lengthAdjust="spacing" textLength="145" x="526" y="324.5487">D&#233;partement de Physique</text><path d="M466,179.0323 L476,179.0323 C491,179.0323 491,319.8926 506,319.8926 L516,319.8926 " fill="none" style="stroke:#008080;stroke-width:1.0;"/><path d="M315,728.3875 L325,728.3875 C340,728.3875 340,179.0323 355,179.0323 L365,179.0323 " fill="none" style="stroke:#008080;stroke-width:1.0;"/><rect fill="#F8F9FA" height="36.3441" rx="4" ry="4" style="stroke:#008080;stroke-width:1.5;" width="149" x="365" y="414.4088"/><text fill="#000000" font-family="sans-serif" font-size="12" lengthAdjust="spacing" textLength="129" x="375" y="437.2369">Secr&#233;tariat du D&#233;canat</text><rect fill="#FFFFFF" height="36.3441" rx="4" ry="4" style="stroke:#008080;stroke-width:1.5;" width="206" x="564" y="358.0647"/><text fill="#000000" font-family="sans-serif" font-size="12" lengthAdjust="spacing" textLength="186" x="574" y="380.8928">Cellule Communication et Qualit&#233;</text><path d="M514,432.5809 L524,432.5809 C539,432.5809 539,376.2367 554,376.2367 L564,376.2367 " fill="none" style="stroke:#008080;stroke-width:1.0;"/><rect fill="#FFFFFF" height="36.3441" rx="4" ry="4" style="stroke:#008080;stroke-width:1.5;" width="157" x="564" y="414.4088"/><text fill="#000000" font-family="sans-serif" font-size="12" lengthAdjust="spacing" textLength="137" x="574" y="437.2369">Commission Scientifique</text><path d="M514,432.5809 L524,432.5809 C539,432.5809 539,432.5809 554,432.5809 L564,432.5809 " fill="none" style="stroke:#008080;stroke-width:1.0;"/><rect fill="#FFFFFF" height="36.3441" rx="4" ry="4" style="stroke:#008080;stroke-width:1.5;" width="199" x="564" y="470.7529"/><text fill="#000000" font-family="sans-serif" font-size="12" lengthAdjust="spacing" textLength="179" x="574" y="493.581">Observatoire de la Vie &#201;tudiante</text><path d="M514,432.5809 L524,432.5809 C539,432.5809 539,488.925 554,488.925 L564,488.925 " fill="none" style="stroke:#008080;stroke-width:1.0;"/><path d="M315,728.3875 L325,728.3875 C340,728.3875 340,432.5809 355,432.5809 L365,432.5809 " fill="none" style="stroke:#008080;stroke-width:1.0;"/><rect fill="#F8F9FA" height="36.3441" rx="4" ry="4" style="stroke:#008080;stroke-width:1.5;" width="130" x="365" y="611.6132"/><text fill="#000000" font-family="sans-serif" font-size="12" lengthAdjust="spacing" textLength="110" x="375" y="634.4413">Charg&#233;s de Mission</text><rect fill="#FFFFFF" height="36.3441" rx="4" ry="4" style="stroke:#008080;stroke-width:1.5;" width="85" x="545" y="527.097"/><text fill="#000000" font-family="sans-serif" font-size="12" lengthAdjust="spacing" textLength="65" x="555" y="549.9251">CM Apog&#233;e</text><path d="M495,629.7853 L505,629.7853 C520,629.7853 520,545.2691 535,545.2691 L545,545.2691 " fill="none" style="stroke:#008080;stroke-width:1.0;"/><rect fill="#FFFFFF" height="36.3441" rx="4" ry="4" style="stroke:#008080;stroke-width:1.5;" width="93" x="545" y="583.4411"/><text fill="#000000" font-family="sans-serif" font-size="12" lengthAdjust="spacing" textLength="73" x="555" y="606.2692">CM PINTECH</text><path d="M495,629.7853 L505,629.7853 C520,629.7853 520,601.6132 535,601.6132 L545,601.6132 " fill="none" style="stroke:#008080;stroke-width:1.0;"/><rect fill="#FFFFFF" height="36.3441" rx="4" ry="4" style="stroke:#008080;stroke-width:1.5;" width="67" x="545" y="639.7853"/><text fill="#000000" font-family="sans-serif" font-size="12" lengthAdjust="spacing" textLength="47" x="555" y="662.6133">CM PE2I</text><path d="M495,629.7853 L505,629.7853 C520,629.7853 520,657.9573 535,657.9573 L545,657.9573 " fill="none" style="stroke:#008080;stroke-width:1.0;"/><rect fill="#FFFFFF" height="36.3441" rx="4" ry="4" style="stroke:#008080;stroke-width:1.5;" width="265" x="545" y="696.1294"/><text fill="#000000" font-family="sans-serif" font-size="12" lengthAdjust="spacing" textLength="245" x="555" y="718.9575">CM Valorisation et Transfert de Technologie</text><path d="M495,629.7853 L505,629.7853 C520,629.7853 520,714.3014 535,714.3014 L545,714.3014 " fill="none" style="stroke:#008080;stroke-width:1.0;"/><path d="M315,728.3875 L325,728.3875 C340,728.3875 340,629.7853 355,629.7853 L365,629.7853 " fill="none" style="stroke:#008080;stroke-width:1.0;"/><rect fill="#F8F9FA" height="36.3441" rx="4" ry="4" style="stroke:#008080;stroke-width:1.5;" width="153" x="365" y="836.9897"/><text fill="#000000" font-family="sans-serif" font-size="12" lengthAdjust="spacing" textLength="133" x="375" y="859.8177">Conseil d'&#233;tablissement</text><rect fill="#FFFFFF" height="36.3441" rx="4" ry="4" style="stroke:#008080;stroke-width:1.5;" width="165" x="568" y="752.4735"/><text fill="#000000" font-family="sans-serif" font-size="12" lengthAdjust="spacing" textLength="145" x="578" y="775.3016">Commission P&#233;dagogique</text><path d="M518,855.1617 L528,855.1617 C543,855.1617 543,770.6455 558,770.6455 L568,770.6455 " fill="none" style="stroke:#008080;stroke-width:1.0;"/><rect fill="#FFFFFF" height="36.3441" rx="4" ry="4" style="stroke:#008080;stroke-width:1.5;" width="168" x="568" y="808.8176"/><text fill="#000000" font-family="sans-serif" font-size="12" lengthAdjust="spacing" textLength="148" x="578" y="831.6457">Commission de Recherche</text><path d="M518,855.1617 L528,855.1617 C543,855.1617 543,826.9897 558,826.9897 L568,826.9897 " fill="none" style="stroke:#008080;stroke-width:1.0;"/><rect fill="#FFFFFF" height="36.3441" rx="4" ry="4" style="stroke:#008080;stroke-width:1.5;" width="285" x="568" y="865.1617"/><text fill="#000000" font-family="sans-serif" font-size="12" lengthAdjust="spacing" textLength="265" x="578" y="887.9898">Commission des Affaires Culturelles et Sociales</text><path d="M518,855.1617 L528,855.1617 C543,855.1617 543,883.3338 558,883.3338 L568,883.3338 " fill="none" style="stroke:#008080;stroke-width:1.0;"/><rect fill="#FFFFFF" height="36.3441" rx="4" ry="4" style="stroke:#008080;stroke-width:1.5;" width="195" x="568" y="921.5058"/><text fill="#000000" font-family="sans-serif" font-size="12" lengthAdjust="spacing" textLength="175" x="578" y="944.3339">Commission de Suivi de Budget</text><path d="M518,855.1617 L528,855.1617 C543,855.1617 543,939.6779 558,939.6779 L568,939.6779 " fill="none" style="stroke:#008080;stroke-width:1.0;"/><path d="M315,728.3875 L325,728.3875 C340,728.3875 340,855.1617 355,855.1617 L365,855.1617 " fill="none" style="stroke:#008080;stroke-width:1.0;"/><rect fill="#FFFFFF" height="36.3441" rx="4" ry="4" style="stroke:#008080;stroke-width:1.5;" width="79" x="365" y="893.3338"/><text fill="#000000" font-family="sans-serif" font-size="12" lengthAdjust="spacing" textLength="59" x="375" y="916.1619">CM ad hoc</text><path d="M315,728.3875 L325,728.3875 C340,728.3875 340,911.5058 355,911.5058 L365,911.5058 " fill="none" style="stroke:#008080;stroke-width:1.0;"/><rect fill="#FFFFFF" height="36.3441" rx="4" ry="4" style="stroke:#008080;stroke-width:1.5;" width="160" x="365" y="949.6779"/><text fill="#000000" font-family="sans-serif" font-size="12" lengthAdjust="spacing" textLength="140" x="375" y="972.506">Comit&#233; d'auto-&#233;valuation</text><path d="M315,728.3875 L325,728.3875 C340,728.3875 340,967.8499 355,967.8499 L365,967.8499 " fill="none" style="stroke:#008080;stroke-width:1.0;"/><rect fill="#FFFFFF" height="36.3441" rx="4" ry="4" style="stroke:#008080;stroke-width:1.5;" width="209" x="365" y="1006.022"/><text fill="#000000" font-family="sans-serif" font-size="12" lengthAdjust="spacing" textLength="189" x="375" y="1028.8501">Commission de suivi des march&#233;s</text><path d="M315,728.3875 L325,728.3875 C340,728.3875 340,1024.1941 355,1024.1941 L365,1024.1941 " fill="none" style="stroke:#008080;stroke-width:1.0;"/><rect fill="#FFFFFF" height="36.3441" rx="4" ry="4" style="stroke:#008080;stroke-width:1.5;" width="122" x="365" y="1062.3661"/><text fill="#000000" font-family="sans-serif" font-size="12" lengthAdjust="spacing" textLength="102" x="375" y="1085.1942">Conseil de gestion</text><path d="M315,728.3875 L325,728.3875 C340,728.3875 340,1080.5382 355,1080.5382 L365,1080.5382 " fill="none" style="stroke:#008080;stroke-width:1.0;"/><rect fill="#FFFFFF" height="36.3441" rx="4" ry="4" style="stroke:#008080;stroke-width:1.5;" width="146" x="365" y="1118.7102"/><text fill="#000000" font-family="sans-serif" font-size="12" lengthAdjust="spacing" textLength="126" x="375" y="1141.5383">Comit&#233; Smart Campus</text><path d="M315,728.3875 L325,728.3875 C340,728.3875 340,1136.8823 355,1136.8823 L365,1136.8823 " fill="none" style="stroke:#008080;stroke-width:1.0;"/><rect fill="#F8F9FA" height="36.3441" rx="4" ry="4" style="stroke:#008080;stroke-width:1.5;" width="157" x="365" y="1175.0543"/><text fill="#000000" font-family="sans-serif" font-size="12" lengthAdjust="spacing" textLength="137" x="375" y="1197.8824">P&#244;le Secr&#233;tariat G&#233;n&#233;ral</text><rect fill="#FFFFFF" height="36.3441" rx="4" ry="4" style="stroke:#008080;stroke-width:1.5;" width="123" x="572" y="1175.0543"/><text fill="#000000" font-family="sans-serif" font-size="12" lengthAdjust="spacing" textLength="103" x="582" y="1197.8824">Dr. Abbas YAMARI</text><path d="M522,1193.2264 L532,1193.2264 C547,1193.2264 547,1193.2264 562,1193.2264 L572,1193.2264 " fill="none" style="stroke:#008080;stroke-width:1.0;"/><path d="M315,728.3875 L325,728.3875 C340,728.3875 340,1193.2264 355,1193.2264 L365,1193.2264 " fill="none" style="stroke:#008080;stroke-width:1.0;"/><rect fill="#F8F9FA" height="36.3441" rx="4" ry="4" style="stroke:#008080;stroke-width:1.5;" width="173" x="365" y="1231.3985"/><text fill="#000000" font-family="sans-serif" font-size="12" lengthAdjust="spacing" textLength="153" x="375" y="1254.2265">P&#244;le Affaires P&#233;dagogiques</text><rect fill="#FFFFFF" height="36.3441" rx="4" ry="4" style="stroke:#008080;stroke-width:1.5;" width="135" x="588" y="1231.3985"/><text fill="#000000" font-family="sans-serif" font-size="12" lengthAdjust="spacing" textLength="115" x="598" y="1254.2265">Pr. Mohamed RADID</text><path d="M538,1249.5705 L548,1249.5705 C563,1249.5705 563,1249.5705 578,1249.5705 L588,1249.5705 " fill="none" style="stroke:#008080;stroke-width:1.0;"/><path d="M315,728.3875 L325,728.3875 C340,728.3875 340,1249.5705 355,1249.5705 L365,1249.5705 " fill="none" style="stroke:#008080;stroke-width:1.0;"/><rect fill="#F8F9FA" height="36.3441" rx="4" ry="4" style="stroke:#008080;stroke-width:1.5;" width="174" x="365" y="1287.7426"/><text fill="#000000" font-family="sans-serif" font-size="12" lengthAdjust="spacing" textLength="154" x="375" y="1310.5707">P&#244;le Recherche Scientifique</text><rect fill="#FFFFFF" height="36.3441" rx="4" ry="4" style="stroke:#008080;stroke-width:1.5;" width="118" x="589" y="1287.7426"/><text fill="#000000" font-family="sans-serif" font-size="12" lengthAdjust="spacing" textLength="98" x="599" y="1310.5707">Pr. Noura YOUSFI</text><path d="M539,1305.9146 L549,1305.9146 C564,1305.9146 564,1305.9146 579,1305.9146 L589,1305.9146 " fill="none" style="stroke:#008080;stroke-width:1.0;"/><path d="M315,728.3875 L325,728.3875 C340,728.3875 340,1305.9146 355,1305.9146 L365,1305.9146 " fill="none" style="stroke:#008080;stroke-width:1.0;"/><rect fill="#F8F9FA" height="36.3441" rx="4" ry="4" style="stroke:#008080;stroke-width:1.5;" width="226" x="365" y="1344.0867"/><text fill="#000000" font-family="sans-serif" font-size="12" lengthAdjust="spacing" textLength="206" x="375" y="1366.9148">P&#244;le D&#233;veloppement et Digitalisation</text><rect fill="#FFFFFF" height="36.3441" rx="4" ry="4" style="stroke:#008080;stroke-width:1.5;" width="149" x="641" y="1344.0867"/><text fill="#000000" font-family="sans-serif" font-size="12" lengthAdjust="spacing" textLength="129" x="651" y="1366.9148">Pr. Abdelwahed NAMIR</text><path d="M591,1362.2587 L601,1362.2587 C616,1362.2587 616,1362.2587 631,1362.2587 L641,1362.2587 " fill="none" style="stroke:#008080;stroke-width:1.0;"/><path d="M315,728.3875 L325,728.3875 C340,728.3875 340,1362.2587 355,1362.2587 L365,1362.2587 " fill="none" style="stroke:#008080;stroke-width:1.0;"/><rect fill="#FFFFFF" height="36.3441" rx="4" ry="4" style="stroke:#008080;stroke-width:1.5;" width="127" x="365" y="1400.4308"/><text fill="#000000" font-family="sans-serif" font-size="12" lengthAdjust="spacing" textLength="107" x="375" y="1423.2589">Services Communs</text><path d="M315,728.3875 L325,728.3875 C340,728.3875 340,1418.6029 355,1418.6029 L365,1418.6029 " fill="none" style="stroke:#008080;stroke-width:1.0;"/><path d="M123,728.3875 L133,728.3875 C148,728.3875 148,728.3875 163,728.3875 L173,728.3875 " fill="none" style="stroke:#008080;stroke-width:1.0;"/><!--SRC=[xLVlJkD64F_kfzZULUeT4ZIaG2awLPZyWT0ak77WYjGl4tlZhCxUzUskWsZ50_HHyhrla1VhhEqu3ZWcEgdV24AATtxpsvdPtuudvqg3r17ZVWInzHtZNfZubCH95Exh6OteVZob1-RHiZuf_HZINwqStMOGI8Z8tnOXNA2J-KB81NXV0YaIxhT4A2JvtksqRePjUtIVclkCqzpWZ7g3rN9NS9qlZpj_Z77j2V-b47fOGxs5uVDLRzmf5bqJDPc8qCzPGmhJEjQLky62bE8X1rQ6_cGzMPz-p2jZxP4R6G1dfZ0HjVRsI5iyKludT-G16OYPMVN9sEvVzD28rkKYnlfZdRbMPcLpYM2G5mot31YjjhPcBDfckrmkwbpxm8E44gf9IqHHmfa7cWbU2LPa07gsN4G8-PhW8thr-5J8VA5w1sVsg5PMub9FBXUeDWPeJ0pO0muwSstHC4pmc3P2CRlyda38z7AHmz3Cb38srsEu3Pkkjx-PA2hde0MJr6mV0hbZb2p_qOdFWEiiZjOCPB1SA8COP5mvzu3OiK0JBPwTtd3SQLsjdplDNl5m1oW5fef8nnAucbAPfZwcteolgu-1SqLPIFmVJ0qc8MwSbkb5MivouKE0VaLQ9ICIZv2OIlolC2fYJwU0sIlIIaATI2ngTbQky1ZWzof6Ds5pbYejyGEghJmzyCbCU7dmaJa231uIBVQNYpc4II6MPtGgfrCa0emJAxrP04e2gig-ARMBO1GYH76IuPtbloY73T6Wdlbo8I7CrOPNofvCG95x6ozZh-HMbA5SpJpvuYRYHHpPxLwxv5SKjq9Tncye4Wda_kRMxPQtGodFQIZYE5C-rhlD0gPHkAfqfPmqNf-63p33lOVse3VARuQSCyySMYf-PPrJRB1vIxREDpgqfRumZfSC-wwQWIyU60_85495IvQqcNb2SYh9QMdT0Tyt-EFIca-dW5enZNA8DI7lN5GnHiIcxwfHBlkBaiDcEHBRqtZc-l5v9ttVFUt-qhMha4BwLEQeHkCK_ofG-8Q91FTVq7PEVkuqcpKEPVRNmEltnljk-dcMcP0xfOMmYfnAc5O8IhrEbS5govD2hYWWv0LVDTZMMh99ecdF4pmzmCtGH1GBZjBT8Rm2Mfzj6x3BWQAlCnR8UiAXq1LatMwpS_8SLN7w9OYhGUyGLWQhZ-bMKM-d75V0UZgNOhFX7hr4hdY723VWjOfPGVjiIiqKinlQmRx3F1R3BiAeSgfNCTuxAS9T99S1Qzak30F87LfGWQpbws3ptwMXvRZwWxND4BcrsHbZgGczT7Sm2WWgrM_QrKjWLJJVDhol4juSVrUacsCthfhFRgFx5eeyfMyTtTV-ssVtzSvle_lRwFuskh-Dxl_RwEw4ADtRGP_CgKnhV7ZGR3IF3dxwC9ubf4idvF2OD1jdHuspnZ7vt777nDW_MXykdVwyIHJ6xE5zO2eRtv3YetKDSo2Z13ECw1cvYIc_Rl-sMi3tqPn9mLDzNjyDre2Je_qBfjE0yLV1tS1gPoCzUdZ2_2eu8xVZxlwfbVOMV8kS4Sgj5lPMBH_Hvlu7]--></g></svg>