<?xml version="1.0" encoding="us-ascii" standalone="no"?><svg xmlns="http://www.w3.org/2000/svg" xmlns:xlink="http://www.w3.org/1999/xlink" contentStyleType="text/css" height="651px" preserveAspectRatio="none" style="width:365px;height:651px;background:#FFFFFF;" version="1.1" viewBox="0 0 365 651" width="365px" zoomAndPan="magnify"><defs/><g><ellipse cx="137.5" cy="20" fill="#222222" rx="10" ry="10" style="stroke:#222222;stroke-width:1.0;"/><rect fill="#F8F9FA" height="46.3441" rx="4" ry="4" style="stroke:#008080;stroke-width:0.5;" width="179" x="48" y="50"/><text fill="#000000" font-family="sans-serif" font-size="12" lengthAdjust="spacing" textLength="149" x="63" y="77.8281">Cr&#233;ation du planning initial</text><rect fill="#F8F9FA" height="46.3441" rx="4" ry="4" style="stroke:#008080;stroke-width:0.5;" width="253" x="11" y="160.3441"/><text fill="#000000" font-family="sans-serif" font-size="12" lengthAdjust="spacing" textLength="223" x="26" y="188.1722">Envoi des disponibilit&#233;s aux enseignants</text><rect fill="#F8F9FA" height="46.3441" rx="4" ry="4" style="stroke:#008080;stroke-width:0.5;" width="163" x="56" y="226.6882"/><text fill="#000000" font-family="sans-serif" font-size="12" lengthAdjust="spacing" textLength="133" x="71" y="254.5163">R&#233;ception des r&#233;ponses</text><polygon fill="#E67E22" points="55.5,293.2204,219.5,293.2204,231.5,306.3925,219.5,319.5645,55.5,319.5645,43.5,306.3925,55.5,293.2204" style="stroke:#E67E22;stroke-width:0.5;"/><text fill="#FFFFFF" font-family="sans-serif" font-size="12" lengthAdjust="spacing" textLength="154" x="60.5" y="311.0485">Disponibilit&#233;s compatibles ?</text><text fill="#008080" font-family="sans-serif" font-size="12" lengthAdjust="spacing" textLength="19" x="19.5" y="297.8765">Oui</text><text fill="#008080" font-family="sans-serif" font-size="12" lengthAdjust="spacing" textLength="23" x="236.5" y="297.8765">Non</text><rect fill="#F8F9FA" height="46.3441" rx="4" ry="4" style="stroke:#008080;stroke-width:0.5;" width="167" x="158" y="329.5645"/><text fill="#000000" font-family="sans-serif" font-size="12" lengthAdjust="spacing" textLength="137" x="173" y="357.3926">Modification du planning</text><rect fill="#F8F9FA" height="46.3441" rx="4" ry="4" style="stroke:#008080;stroke-width:0.5;" width="156" x="163.5" y="395.9087"/><text fill="#000000" font-family="sans-serif" font-size="12" lengthAdjust="spacing" textLength="126" x="178.5" y="423.7367">Nouvel envoi d'e-mails</text><polygon fill="#E67E22" points="137.5,116.3441,149.5,128.3441,137.5,140.3441,125.5,128.3441,137.5,116.3441" style="stroke:#E67E22;stroke-width:0.5;"/><polygon fill="#E67E22" points="58.5,462.2528,216.5,462.2528,228.5,475.4248,216.5,488.5969,58.5,488.5969,46.5,475.4248,58.5,462.2528" style="stroke:#E67E22;stroke-width:0.5;"/><text fill="#FFFFFF" font-family="sans-serif" font-size="12" lengthAdjust="spacing" textLength="148" x="63.5" y="480.0809">En attente de confirmation</text><polygon fill="#E67E22" points="137.5,508.5969,149.5,520.5969,137.5,532.5969,125.5,520.5969,137.5,508.5969" style="stroke:#E67E22;stroke-width:0.5;"/><rect fill="#F8F9FA" height="46.3441" rx="4" ry="4" style="stroke:#008080;stroke-width:0.5;" width="144" x="65.5" y="552.5969"/><text fill="#000000" font-family="sans-serif" font-size="12" lengthAdjust="spacing" textLength="114" x="80.5" y="580.425">Affectation des jurys</text><ellipse cx="137.5" cy="629.941" fill="none" rx="11" ry="11" style="stroke:#222222;stroke-width:1.0;"/><ellipse cx="137.5" cy="629.941" fill="#222222" rx="6" ry="6" style="stroke:#222222;stroke-width:1.0;"/><line style="stroke:#008080;stroke-width:1.0;" x1="137.5" x2="137.5" y1="30" y2="50"/><polygon fill="#008080" points="133.5,40,137.5,50,141.5,40,137.5,44" style="stroke:#008080;stroke-width:1.0;"/><line style="stroke:#008080;stroke-width:1.0;" x1="137.5" x2="137.5" y1="206.6882" y2="226.6882"/><polygon fill="#008080" points="133.5,216.6882,137.5,226.6882,141.5,216.6882,137.5,220.6882" style="stroke:#008080;stroke-width:1.0;"/><line style="stroke:#008080;stroke-width:1.0;" x1="241.5" x2="241.5" y1="375.9087" y2="395.9087"/><polygon fill="#008080" points="237.5,385.9087,241.5,395.9087,245.5,385.9087,241.5,389.9087" style="stroke:#008080;stroke-width:1.0;"/><line style="stroke:#008080;stroke-width:1.0;" x1="43.5" x2="33.5" y1="306.3925" y2="306.3925"/><line style="stroke:#008080;stroke-width:1.0;" x1="33.5" x2="33.5" y1="306.3925" y2="520.5969"/><line style="stroke:#008080;stroke-width:1.0;" x1="33.5" x2="125.5" y1="520.5969" y2="520.5969"/><polygon fill="#008080" points="115.5,516.5969,125.5,520.5969,115.5,524.5969,119.5,520.5969" style="stroke:#008080;stroke-width:1.0;"/><line style="stroke:#008080;stroke-width:1.0;" x1="231.5" x2="241.5" y1="306.3925" y2="306.3925"/><line style="stroke:#008080;stroke-width:1.0;" x1="241.5" x2="241.5" y1="306.3925" y2="329.5645"/><polygon fill="#008080" points="237.5,319.5645,241.5,329.5645,245.5,319.5645,241.5,323.5645" style="stroke:#008080;stroke-width:1.0;"/><line style="stroke:#008080;stroke-width:1.0;" x1="241.5" x2="241.5" y1="442.2528" y2="447.2528"/><line style="stroke:#008080;stroke-width:1.0;" x1="241.5" x2="137.5" y1="447.2528" y2="447.2528"/><line style="stroke:#008080;stroke-width:1.0;" x1="137.5" x2="137.5" y1="273.0323" y2="293.2204"/><polygon fill="#008080" points="133.5,283.2204,137.5,293.2204,141.5,283.2204,137.5,287.2204" style="stroke:#008080;stroke-width:1.0;"/><line style="stroke:#008080;stroke-width:1.0;" x1="137.5" x2="137.5" y1="140.3441" y2="160.3441"/><polygon fill="#008080" points="133.5,150.3441,137.5,160.3441,141.5,150.3441,137.5,154.3441" style="stroke:#008080;stroke-width:1.0;"/><line style="stroke:#008080;stroke-width:1.0;" x1="228.5" x2="339" y1="475.4248" y2="475.4248"/><polygon fill="#008080" points="335,307.4785,339,297.4785,343,307.4785,339,303.4785" style="stroke:#008080;stroke-width:1.0;"/><line style="stroke:#008080;stroke-width:1.0;" x1="339" x2="339" y1="128.3441" y2="475.4248"/><line style="stroke:#008080;stroke-width:1.0;" x1="339" x2="149.5" y1="128.3441" y2="128.3441"/><polygon fill="#008080" points="159.5,124.3441,149.5,128.3441,159.5,132.3441,155.5,128.3441" style="stroke:#008080;stroke-width:1.0;"/><line style="stroke:#008080;stroke-width:1.0;" x1="137.5" x2="137.5" y1="447.2528" y2="462.2528"/><polygon fill="#008080" points="133.5,452.2528,137.5,462.2528,141.5,452.2528,137.5,456.2528" style="stroke:#008080;stroke-width:1.0;"/><line style="stroke:#008080;stroke-width:1.0;" x1="137.5" x2="137.5" y1="488.5969" y2="508.5969"/><polygon fill="#008080" points="133.5,498.5969,137.5,508.5969,141.5,498.5969,137.5,502.5969" style="stroke:#008080;stroke-width:1.0;"/><line style="stroke:#008080;stroke-width:1.0;" x1="137.5" x2="137.5" y1="96.3441" y2="116.3441"/><polygon fill="#008080" points="133.5,106.3441,137.5,116.3441,141.5,106.3441,137.5,110.3441" style="stroke:#008080;stroke-width:1.0;"/><line style="stroke:#008080;stroke-width:1.0;" x1="137.5" x2="137.5" y1="532.5969" y2="552.5969"/><polygon fill="#008080" points="133.5,542.5969,137.5,552.5969,141.5,542.5969,137.5,546.5969" style="stroke:#008080;stroke-width:1.0;"/><line style="stroke:#008080;stroke-width:1.0;" x1="137.5" x2="137.5" y1="598.941" y2="618.941"/><polygon fill="#008080" points="133.5,608.941,137.5,618.941,141.5,608.941,137.5,612.941" style="stroke:#008080;stroke-width:1.0;"/><!--SRC=[POz1KiCm34NtFeLOaIp20T85mq2NBJFSG4taLk387bikSAIS8nT32GmBM5hMV__fXcK8TIH8TGgTNcYYBdcwMv_E5SMihd_CoupAKM2ia0AAi9o1XPKnx5ocHAWEeD_BDJACL63aagBmYGFhCXV0-W4aXVWiA5fsw_RBCW-KlhaMiHAB5B9Fzj0y_I4CSKecSGgsUj-2gGeqpvLRGvqouPkZK0YQOvHrr1_Yo9w7VzvRzJ7MAmKpsdnlgPkGWnMJMEZd87Y_S33WNW1LIPHCqpJ4SvusRElw1-zfKFmzuhNcJ-CKZUaB]--></g></svg>