<?xml version="1.0" encoding="UTF-8" standalone="no"?><svg xmlns="http://www.w3.org/2000/svg" xmlns:xlink="http://www.w3.org/1999/xlink" contentScriptType="application/ecmascript" contentStyleType="text/css" height="651px" preserveAspectRatio="none" style="width:364px;height:651px;" version="1.1" viewBox="0 0 364 651" width="364px" zoomAndPan="magnify"><defs/><g><ellipse cx="136.5" cy="20" fill="#000000" rx="10" ry="10" style="stroke: none; stroke-width: 1.0;"/><rect fill="#F8F9FA" height="46.3441" rx="12.5" ry="12.5" style="stroke: #008080; stroke-width: 1.5;" width="179" x="47" y="50"/><text fill="#000000" font-family="sans-serif" font-size="12" lengthAdjust="spacingAndGlyphs" textLength="149" x="62" y="77.8281">Création du planning initial</text><rect fill="#F8F9FA" height="46.3441" rx="12.5" ry="12.5" style="stroke: #008080; stroke-width: 1.5;" width="253" x="10" y="160.3441"/><text fill="#000000" font-family="sans-serif" font-size="12" lengthAdjust="spacingAndGlyphs" textLength="223" x="25" y="188.1722">Envoi des disponibilités aux enseignants</text><rect fill="#F8F9FA" height="46.3441" rx="12.5" ry="12.5" style="stroke: #008080; stroke-width: 1.5;" width="163" x="55" y="226.6882"/><text fill="#000000" font-family="sans-serif" font-size="12" lengthAdjust="spacingAndGlyphs" textLength="133" x="70" y="254.5163">Réception des réponses</text><polygon fill="#E67E22" points="54.5,293.2204,218.5,293.2204,230.5,306.3925,218.5,319.5645,54.5,319.5645,42.5,306.3925,54.5,293.2204" style="stroke: #E67E22; stroke-width: 1.5;"/><text fill="#FFFFFF" font-family="sans-serif" font-size="12" lengthAdjust="spacingAndGlyphs" textLength="154" x="59.5" y="311.0485">Disponibilités compatibles ?</text><text fill="#008080" font-family="sans-serif" font-size="12" lengthAdjust="spacingAndGlyphs" textLength="19" x="18.5" y="297.8765">Oui</text><text fill="#008080" font-family="sans-serif" font-size="12" lengthAdjust="spacingAndGlyphs" textLength="23" x="235.5" y="297.8765">Non</text><rect fill="#F8F9FA" height="46.3441" rx="12.5" ry="12.5" style="stroke: #008080; stroke-width: 1.5;" width="167" x="157" y="329.5645"/><text fill="#000000" font-family="sans-serif" font-size="12" lengthAdjust="spacingAndGlyphs" textLength="137" x="172" y="357.3926">Modification du planning</text><rect fill="#F8F9FA" height="46.3441" rx="12.5" ry="12.5" style="stroke: #008080; stroke-width: 1.5;" width="156" x="162.5" y="395.9087"/><text fill="#000000" font-family="sans-serif" font-size="12" lengthAdjust="spacingAndGlyphs" textLength="126" x="177.5" y="423.7367">Nouvel envoi d'e-mails</text><polygon fill="#E67E22" points="136.5,116.3441,148.5,128.3441,136.5,140.3441,124.5,128.3441,136.5,116.3441" style="stroke: #E67E22; stroke-width: 1.5;"/><polygon fill="#E67E22" points="57.5,462.2528,215.5,462.2528,227.5,475.4248,215.5,488.5969,57.5,488.5969,45.5,475.4248,57.5,462.2528" style="stroke: #E67E22; stroke-width: 1.5;"/><text fill="#FFFFFF" font-family="sans-serif" font-size="12" lengthAdjust="spacingAndGlyphs" textLength="148" x="62.5" y="480.0809">En attente de confirmation</text><polygon fill="#E67E22" points="136.5,508.5969,148.5,520.5969,136.5,532.5969,124.5,520.5969,136.5,508.5969" style="stroke: #E67E22; stroke-width: 1.5;"/><rect fill="#F8F9FA" height="46.3441" rx="12.5" ry="12.5" style="stroke: #008080; stroke-width: 1.5;" width="144" x="64.5" y="552.5969"/><text fill="#000000" font-family="sans-serif" font-size="12" lengthAdjust="spacingAndGlyphs" textLength="114" x="79.5" y="580.425">Affectation des jurys</text><ellipse cx="136.5" cy="629.941" fill="#FFFFFF" rx="11" ry="11" style="stroke: #000000; stroke-width: 1.0;"/><ellipse cx="136.5" cy="629.941" fill="#000000" rx="6" ry="6" style="stroke: #7F7F7F; stroke-width: 1.0;"/><line style="stroke: #008080; stroke-width: 1.5;" x1="136.5" x2="136.5" y1="30" y2="50"/><polygon fill="#008080" points="132.5,40,136.5,50,140.5,40,136.5,44" style="stroke: #008080; stroke-width: 1.0;"/><line style="stroke: #008080; stroke-width: 1.5;" x1="136.5" x2="136.5" y1="206.6882" y2="226.6882"/><polygon fill="#008080" points="132.5,216.6882,136.5,226.6882,140.5,216.6882,136.5,220.6882" style="stroke: #008080; stroke-width: 1.0;"/><line style="stroke: #008080; stroke-width: 1.5;" x1="240.5" x2="240.5" y1="375.9087" y2="395.9087"/><polygon fill="#008080" points="236.5,385.9087,240.5,395.9087,244.5,385.9087,240.5,389.9087" style="stroke: #008080; stroke-width: 1.0;"/><line style="stroke: #008080; stroke-width: 1.5;" x1="42.5" x2="32.5" y1="306.3925" y2="306.3925"/><line style="stroke: #008080; stroke-width: 1.5;" x1="32.5" x2="32.5" y1="306.3925" y2="520.5969"/><line style="stroke: #008080; stroke-width: 1.5;" x1="32.5" x2="124.5" y1="520.5969" y2="520.5969"/><polygon fill="#008080" points="114.5,516.5969,124.5,520.5969,114.5,524.5969,118.5,520.5969" style="stroke: #008080; stroke-width: 1.0;"/><line style="stroke: #008080; stroke-width: 1.5;" x1="230.5" x2="240.5" y1="306.3925" y2="306.3925"/><line style="stroke: #008080; stroke-width: 1.5;" x1="240.5" x2="240.5" y1="306.3925" y2="329.5645"/><polygon fill="#008080" points="236.5,319.5645,240.5,329.5645,244.5,319.5645,240.5,323.5645" style="stroke: #008080; stroke-width: 1.0;"/><line style="stroke: #008080; stroke-width: 1.5;" x1="240.5" x2="240.5" y1="442.2528" y2="447.2528"/><line style="stroke: #008080; stroke-width: 1.5;" x1="240.5" x2="136.5" y1="447.2528" y2="447.2528"/><line style="stroke: #008080; stroke-width: 1.5;" x1="136.5" x2="136.5" y1="273.0323" y2="293.2204"/><polygon fill="#008080" points="132.5,283.2204,136.5,293.2204,140.5,283.2204,136.5,287.2204" style="stroke: #008080; stroke-width: 1.0;"/><line style="stroke: #008080; stroke-width: 1.5;" x1="136.5" x2="136.5" y1="140.3441" y2="160.3441"/><polygon fill="#008080" points="132.5,150.3441,136.5,160.3441,140.5,150.3441,136.5,154.3441" style="stroke: #008080; stroke-width: 1.0;"/><line style="stroke: #008080; stroke-width: 1.5;" x1="227.5" x2="338" y1="475.4248" y2="475.4248"/><polygon fill="#008080" points="334,307.4785,338,297.4785,342,307.4785,338,303.4785" style="stroke: #008080; stroke-width: 1.5;"/><line style="stroke: #008080; stroke-width: 1.5;" x1="338" x2="338" y1="128.3441" y2="475.4248"/><line style="stroke: #008080; stroke-width: 1.5;" x1="338" x2="148.5" y1="128.3441" y2="128.3441"/><polygon fill="#008080" points="158.5,124.3441,148.5,128.3441,158.5,132.3441,154.5,128.3441" style="stroke: #008080; stroke-width: 1.0;"/><line style="stroke: #008080; stroke-width: 1.5;" x1="136.5" x2="136.5" y1="447.2528" y2="462.2528"/><polygon fill="#008080" points="132.5,452.2528,136.5,462.2528,140.5,452.2528,136.5,456.2528" style="stroke: #008080; stroke-width: 1.0;"/><line style="stroke: #008080; stroke-width: 1.5;" x1="136.5" x2="136.5" y1="488.5969" y2="508.5969"/><polygon fill="#008080" points="132.5,498.5969,136.5,508.5969,140.5,498.5969,136.5,502.5969" style="stroke: #008080; stroke-width: 1.0;"/><line style="stroke: #008080; stroke-width: 1.5;" x1="136.5" x2="136.5" y1="96.3441" y2="116.3441"/><polygon fill="#008080" points="132.5,106.3441,136.5,116.3441,140.5,106.3441,136.5,110.3441" style="stroke: #008080; stroke-width: 1.0;"/><line style="stroke: #008080; stroke-width: 1.5;" x1="136.5" x2="136.5" y1="532.5969" y2="552.5969"/><polygon fill="#008080" points="132.5,542.5969,136.5,552.5969,140.5,542.5969,136.5,546.5969" style="stroke: #008080; stroke-width: 1.0;"/><line style="stroke: #008080; stroke-width: 1.5;" x1="136.5" x2="136.5" y1="598.941" y2="618.941"/><polygon fill="#008080" points="132.5,608.941,136.5,618.941,140.5,608.941,136.5,612.941" style="stroke: #008080; stroke-width: 1.0;"/><!--MD5=[fb2e55955dbc43e90b4c41338446d5f0]
@startuml

skinparam shadowing false
skinparam roundcorner 8
skinparam Padding 5
skinparam defaultFontName "SansSerif"
skinparam defaultFontSize 12

skinparam ActivityBackgroundColor #F8F9FA
skinparam ActivityBorderColor #008080
skinparam ActivityDiamondBackgroundColor #E67E22
skinparam ActivityDiamondBorderColor #E67E22
skinparam ActivityDiamondFontColor #FFFFFF

skinparam ActorBackgroundColor #F8F9FA
skinparam ActorBorderColor #008080

skinparam ClassBackgroundColor #F8F9FA
skinparam ClassBorderColor #008080
skinparam ClassHeaderBackgroundColor #008080
skinparam ClassAttributeIconSize 0

skinparam ComponentBackgroundColor #F8F9FA
skinparam ComponentBorderColor #008080

skinparam DatabaseBackgroundColor #F8F9FA
skinparam DatabaseBorderColor #008080

skinparam NoteBackgroundColor #FFF2E6
skinparam NoteBorderColor #E67E22

skinparam StateBackgroundColor #F8F9FA
skinparam StateBorderColor #008080

skinparam UsecaseBackgroundColor #F8F9FA
skinparam UsecaseBorderColor #008080

skinparam SequenceGroupBackgroundColor #F8F9FA
skinparam SequenceGroupBorderColor #008080
skinparam SequenceLifeLineBorderColor #008080
skinparam SequenceParticipantBackgroundColor #F8F9FA
skinparam SequenceParticipantBorderColor #008080
skinparam ControlBackgroundColor #F8F9FA
skinparam ControlBorderColor #008080
skinparam BoundaryBackgroundColor #F8F9FA
skinparam BoundaryBorderColor #008080
skinparam EntityBackgroundColor #F8F9FA
skinparam EntityBorderColor #008080

skinparam ArrowColor #008080
skinparam ArrowFontColor #008080

skinparam PackageBackgroundColor #FFFFFF
skinparam PackageBorderColor #008080

start
:Création du planning initial;
repeat
  :Envoi des disponibilités aux enseignants;
  :Réception des réponses;
if (Disponibilités compatibles ?) then (Oui)
  break
else (Non)
  :Modification du planning;
  :Nouvel envoi d'e-mails;
endif
repeat while (En attente de confirmation)
:Affectation des jurys;
stop
@enduml

PlantUML version 1.2020.02(Sun Mar 01 11:22:07 WEST 2020)
(GPL source distribution)
Java Runtime: OpenJDK Runtime Environment
JVM: OpenJDK 64-Bit Server VM
Java Version: 21.0.11+10-1-24.04.2-Ubuntu
Operating System: Linux
Default Encoding: UTF-8
Language: en
Country: US
--></g></svg>