<?xml version="1.0" encoding="us-ascii" standalone="no"?><svg xmlns="http://www.w3.org/2000/svg" xmlns:xlink="http://www.w3.org/1999/xlink" contentStyleType="text/css" height="996px" preserveAspectRatio="none" style="width:1364px;height:996px;background:#FFFFFF;" version="1.1" viewBox="0 0 1364 996" width="1364px" zoomAndPan="magnify"><defs/><g><rect fill="#FFFFFF" height="753.5382" style="stroke:#008080;stroke-width:1.0;" width="10" x="366" y="133.6882"/><rect fill="#FFFFFF" height="93.6882" style="stroke:#008080;stroke-width:1.0;" width="10" x="667" y="174.0323"/><rect fill="#FFFFFF" height="282.4088" style="stroke:#008080;stroke-width:1.0;" width="10" x="890" y="564.4735"/><rect fill="#FFFFFF" height="121.0323" style="stroke:#008080;stroke-width:1.0;" width="10" x="1083" y="604.8176"/><rect fill="#FFFFFF" height="202.0647" rx="4" ry="4" style="stroke:#008080;stroke-width:1.5;" width="589" x="10" y="282.7206"/><path d="M10,362.7529 L599,362.7529 L599,480.7853 A4,4 0 0 1 595,484.7853 L14,484.7853 A4,4 0 0 1 10,480.7853 L10,362.7529 " fill="#FFFFFF" style="stroke:none;stroke-width:1.0;"/><line style="stroke:#008080;stroke-width:0.5;stroke-dasharray:5.0,5.0;" x1="65" x2="65" y1="91.3441" y2="905.2264"/><line style="stroke:#008080;stroke-width:0.5;stroke-dasharray:5.0,5.0;" x1="370.5" x2="370.5" y1="91.3441" y2="905.2264"/><line style="stroke:#008080;stroke-width:0.5;stroke-dasharray:5.0,5.0;" x1="672" x2="672" y1="91.3441" y2="905.2264"/><line style="stroke:#008080;stroke-width:0.5;stroke-dasharray:5.0,5.0;" x1="895" x2="895" y1="91.3441" y2="905.2264"/><line style="stroke:#008080;stroke-width:0.5;stroke-dasharray:5.0,5.0;" x1="1088" x2="1088" y1="91.3441" y2="905.2264"/><line style="stroke:#008080;stroke-width:0.5;stroke-dasharray:5.0,5.0;" x1="1312" x2="1312" y1="91.3441" y2="905.2264"/><text fill="#000000" font-family="sans-serif" font-size="12" lengthAdjust="spacing" textLength="74" x="25" y="82.8281">Coordinateur</text><ellipse cx="65" cy="13.5" fill="#F8F9FA" rx="8" ry="8" style="stroke:#008080;stroke-width:0.5;"/><path d="M65,21.5 L65,48.5 M52,29.5 L78,29.5 M65,48.5 L52,63.5 M65,48.5 L78,63.5 " fill="none" style="stroke:#008080;stroke-width:0.5;"/><text fill="#000000" font-family="sans-serif" font-size="12" lengthAdjust="spacing" textLength="74" x="25" y="922.0545">Coordinateur</text><ellipse cx="65" cy="939.0705" fill="#F8F9FA" rx="8" ry="8" style="stroke:#008080;stroke-width:0.5;"/><path d="M65,947.0705 L65,974.0705 M52,955.0705 L78,955.0705 M65,974.0705 L52,989.0705 M65,974.0705 L78,989.0705 " fill="none" style="stroke:#008080;stroke-width:0.5;"/><text fill="#000000" font-family="sans-serif" font-size="12" lengthAdjust="spacing" textLength="143" x="296.5" y="82.8281">Defense Designer (React)</text><path d="M350.5,37 L350.5,61 M350.5,49 L367.5,49 " fill="none" style="stroke:#008080;stroke-width:0.5;"/><ellipse cx="379.5" cy="49" fill="#F8F9FA" rx="12" ry="12" style="stroke:#008080;stroke-width:0.5;"/><text fill="#000000" font-family="sans-serif" font-size="12" lengthAdjust="spacing" textLength="143" x="296.5" y="922.0545">Defense Designer (React)</text><path d="M350.5,934.5705 L350.5,958.5705 M350.5,946.5705 L367.5,946.5705 " fill="none" style="stroke:#008080;stroke-width:0.5;"/><ellipse cx="379.5" cy="946.5705" fill="#F8F9FA" rx="12" ry="12" style="stroke:#008080;stroke-width:0.5;"/><text fill="#000000" font-family="sans-serif" font-size="12" lengthAdjust="spacing" textLength="108" x="615" y="82.8281">Conflict Engine (TS)</text><ellipse cx="672" cy="49" fill="#F8F9FA" rx="12" ry="12" style="stroke:#008080;stroke-width:0.5;"/><polygon fill="#008080" points="668,37,674,32,672,37,674,42,668,37" style="stroke:#008080;stroke-width:1.0;"/><text fill="#000000" font-family="sans-serif" font-size="12" lengthAdjust="spacing" textLength="108" x="615" y="922.0545">Conflict Engine (TS)</text><ellipse cx="672" cy="946.5705" fill="#F8F9FA" rx="12" ry="12" style="stroke:#008080;stroke-width:0.5;"/><polygon fill="#008080" points="668,934.5705,674,929.5705,672,934.5705,674,939.5705,668,934.5705" style="stroke:#008080;stroke-width:1.0;"/><text fill="#000000" font-family="sans-serif" font-size="12" lengthAdjust="spacing" textLength="140" x="822" y="82.8281">Schedule Controller (API)</text><ellipse cx="895" cy="49" fill="#F8F9FA" rx="12" ry="12" style="stroke:#008080;stroke-width:0.5;"/><line style="stroke:#008080;stroke-width:0.5;" x1="883" x2="907" y1="63" y2="63"/><text fill="#000000" font-family="sans-serif" font-size="12" lengthAdjust="spacing" textLength="140" x="822" y="922.0545">Schedule Controller (API)</text><ellipse cx="895" cy="946.5705" fill="#F8F9FA" rx="12" ry="12" style="stroke:#008080;stroke-width:0.5;"/><line style="stroke:#008080;stroke-width:0.5;" x1="883" x2="907" y1="960.5705" y2="960.5705"/><text fill="#000000" font-family="sans-serif" font-size="12" lengthAdjust="spacing" textLength="120" x="1025" y="82.8281">Conflict Service (Java)</text><ellipse cx="1088" cy="49" fill="#F8F9FA" rx="12" ry="12" style="stroke:#008080;stroke-width:0.5;"/><line style="stroke:#008080;stroke-width:0.5;" x1="1076" x2="1100" y1="63" y2="63"/><text fill="#000000" font-family="sans-serif" font-size="12" lengthAdjust="spacing" textLength="120" x="1025" y="922.0545">Conflict Service (Java)</text><ellipse cx="1088" cy="946.5705" fill="#F8F9FA" rx="12" ry="12" style="stroke:#008080;stroke-width:0.5;"/><line style="stroke:#008080;stroke-width:0.5;" x1="1076" x2="1100" y1="960.5705" y2="960.5705"/><text fill="#000000" font-family="sans-serif" font-size="12" lengthAdjust="spacing" textLength="96" x="1261" y="82.8281">Base de donn&#233;es</text><path d="M1294,29 C1294,19 1312,19 1312,19 C1312,19 1330,19 1330,29 L1330,55 C1330,65 1312,65 1312,65 C1312,65 1294,65 1294,55 L1294,29 " fill="#F8F9FA" style="stroke:#008080;stroke-width:1.5;"/><path d="M1294,29 C1294,39 1312,39 1312,39 C1312,39 1330,39 1330,29 " fill="none" style="stroke:#008080;stroke-width:1.5;"/><text fill="#000000" font-family="sans-serif" font-size="12" lengthAdjust="spacing" textLength="96" x="1261" y="922.0545">Base de donn&#233;es</text><path d="M1294,940.5705 C1294,930.5705 1312,930.5705 1312,930.5705 C1312,930.5705 1330,930.5705 1330,940.5705 L1330,966.5705 C1330,976.5705 1312,976.5705 1312,976.5705 C1312,976.5705 1294,976.5705 1294,966.5705 L1294,940.5705 " fill="#F8F9FA" style="stroke:#008080;stroke-width:1.5;"/><path d="M1294,940.5705 C1294,950.5705 1312,950.5705 1312,950.5705 C1312,950.5705 1330,950.5705 1330,940.5705 " fill="none" style="stroke:#008080;stroke-width:1.5;"/><rect fill="#FFFFFF" height="753.5382" style="stroke:#008080;stroke-width:1.0;" width="10" x="366" y="133.6882"/><rect fill="#FFFFFF" height="93.6882" style="stroke:#008080;stroke-width:1.0;" width="10" x="667" y="174.0323"/><rect fill="#FFFFFF" height="282.4088" style="stroke:#008080;stroke-width:1.0;" width="10" x="890" y="564.4735"/><rect fill="#FFFFFF" height="121.0323" style="stroke:#008080;stroke-width:1.0;" width="10" x="1083" y="604.8176"/><polygon fill="#008080" points="354,129.6882,364,133.6882,354,137.6882,358,133.6882" style="stroke:#008080;stroke-width:1.0;"/><line style="stroke:#008080;stroke-width:1.0;" x1="65" x2="360" y1="133.6882" y2="133.6882"/><text fill="#008080" font-family="sans-serif" font-size="12" lengthAdjust="spacing" textLength="217" x="77" y="123.1722">Glisser-d&#233;poser un Jury sur un cr&#233;neau</text><polygon fill="#008080" points="655,170.0323,665,174.0323,655,178.0323,659,174.0323" style="stroke:#008080;stroke-width:1.0;"/><line style="stroke:#008080;stroke-width:1.0;" x1="376" x2="661" y1="174.0323" y2="174.0323"/><text fill="#008080" font-family="sans-serif" font-size="12" lengthAdjust="spacing" textLength="262" x="388" y="163.5163">validateSlotAssignment(projectId, slot, context)</text><line style="stroke:#008080;stroke-width:1.0;" x1="677" x2="719" y1="214.3765" y2="214.3765"/><line style="stroke:#008080;stroke-width:1.0;" x1="719" x2="719" y1="214.3765" y2="227.3765"/><line style="stroke:#008080;stroke-width:1.0;" x1="678" x2="719" y1="227.3765" y2="227.3765"/><polygon fill="#008080" points="688,223.3765,678,227.3765,688,231.3765,684,227.3765" style="stroke:#008080;stroke-width:1.0;"/><text fill="#008080" font-family="sans-serif" font-size="12" lengthAdjust="spacing" textLength="189" x="689" y="203.8604">Ex&#233;cuter les 8 v&#233;rifications (Local)</text><polygon fill="#008080" points="387,263.7206,377,267.7206,387,271.7206,383,267.7206" style="stroke:#008080;stroke-width:1.0;"/><line style="stroke:#008080;stroke-width:1.0;stroke-dasharray:2.0,2.0;" x1="381" x2="671" y1="267.7206" y2="267.7206"/><text fill="#008080" font-family="sans-serif" font-size="12" lengthAdjust="spacing" textLength="133" x="398" y="257.2045">R&#233;sultat (isValid, issues)</text><path d="M14,282.7206 L81,282.7206 L81,301.0647 L71,311.0647 L10,311.0647 L10,286.7206 A4,4 0 0 1 14,282.7206 " fill="#F8F9FA" style="stroke:#008080;stroke-width:1.5;"/><rect fill="none" height="202.0647" rx="4" ry="4" style="stroke:#008080;stroke-width:1.5;" width="589" x="10" y="282.7206"/><text fill="#000000" font-family="sans-serif" font-size="12" font-weight="bold" lengthAdjust="spacing" textLength="16" x="30" y="301.5487">alt</text><text fill="#000000" font-family="sans-serif" font-size="12" font-weight="bold" lengthAdjust="spacing" textLength="147" x="101" y="302.5487">[Conflit critique d&#233;tect&#233;]</text><polygon fill="#008080" points="76,350.7529,66,354.7529,76,358.7529,72,354.7529" style="stroke:#008080;stroke-width:1.0;"/><line style="stroke:#008080;stroke-width:1.0;" x1="70" x2="365" y1="354.7529" y2="354.7529"/><text fill="#008080" font-family="sans-serif" font-size="12" lengthAdjust="spacing" textLength="267" x="87" y="344.2369">Afficher Toast d'erreur + Suggestion intelligente</text><line style="stroke:#008080;stroke-width:1.0;stroke-dasharray:2.0,2.0;" x1="10" x2="599" y1="363.7529" y2="363.7529"/><text fill="#000000" font-family="sans-serif" font-size="12" font-weight="bold" lengthAdjust="spacing" textLength="46" x="20" y="381.581">[Valide]</text><line style="stroke:#008080;stroke-width:1.0;" x1="376" x2="418" y1="423.4411" y2="423.4411"/><line style="stroke:#008080;stroke-width:1.0;" x1="418" x2="418" y1="423.4411" y2="436.4411"/><line style="stroke:#008080;stroke-width:1.0;" x1="377" x2="418" y1="436.4411" y2="436.4411"/><polygon fill="#008080" points="387,432.4411,377,436.4411,387,440.4411,383,436.4411" style="stroke:#008080;stroke-width:1.0;"/><text fill="#008080" font-family="sans-serif" font-size="12" lengthAdjust="spacing" textLength="194" x="388" y="412.9251">Mettre &#224; jour l'&#233;tat local (schedule)</text><polygon fill="#008080" points="76,472.7853,66,476.7853,76,480.7853,72,476.7853" style="stroke:#008080;stroke-width:1.0;"/><line style="stroke:#008080;stroke-width:1.0;" x1="70" x2="365" y1="476.7853" y2="476.7853"/><text fill="#008080" font-family="sans-serif" font-size="12" lengthAdjust="spacing" textLength="185" x="87" y="466.2692">Afficher "Positionn&#233; avec succ&#232;s"</text><polygon fill="#008080" points="354,520.1294,364,524.1294,354,528.1294,358,524.1294" style="stroke:#008080;stroke-width:1.0;"/><line style="stroke:#008080;stroke-width:1.0;" x1="65" x2="360" y1="524.1294" y2="524.1294"/><text fill="#008080" font-family="sans-serif" font-size="12" lengthAdjust="spacing" textLength="137" x="77" y="513.6133">Cliquer sur "Enregistrer"</text><polygon fill="#008080" points="878,560.4735,888,564.4735,878,568.4735,882,564.4735" style="stroke:#008080;stroke-width:1.0;"/><line style="stroke:#008080;stroke-width:1.0;" x1="376" x2="884" y1="564.4735" y2="564.4735"/><text fill="#008080" font-family="sans-serif" font-size="12" lengthAdjust="spacing" textLength="239" x="388" y="553.9575">POST /api/coordinator/schedule (Full State)</text><polygon fill="#008080" points="1071,600.8176,1081,604.8176,1071,608.8176,1075,604.8176" style="stroke:#008080;stroke-width:1.0;"/><line style="stroke:#008080;stroke-width:1.0;" x1="900" x2="1077" y1="604.8176" y2="604.8176"/><text fill="#008080" font-family="sans-serif" font-size="12" lengthAdjust="spacing" textLength="154" x="912" y="594.3016">validate(request, sessionId)</text><polygon fill="#008080" points="1300,641.1617,1310,645.1617,1300,649.1617,1304,645.1617" style="stroke:#008080;stroke-width:1.0;"/><line style="stroke:#008080;stroke-width:1.0;" x1="1093" x2="1306" y1="645.1617" y2="645.1617"/><text fill="#008080" font-family="sans-serif" font-size="12" lengthAdjust="spacing" textLength="185" x="1105" y="634.6457">V&#233;rifier int&#233;grit&#233; et conflits finaux</text><polygon fill="#008080" points="1104,681.5058,1094,685.5058,1104,689.5058,1100,685.5058" style="stroke:#008080;stroke-width:1.0;"/><line style="stroke:#008080;stroke-width:1.0;stroke-dasharray:2.0,2.0;" x1="1098" x2="1311" y1="685.5058" y2="685.5058"/><text fill="#008080" font-family="sans-serif" font-size="12" lengthAdjust="spacing" textLength="50" x="1115" y="674.9898">Donn&#233;es</text><polygon fill="#008080" points="911,721.8499,901,725.8499,911,729.8499,907,725.8499" style="stroke:#008080;stroke-width:1.0;"/><line style="stroke:#008080;stroke-width:1.0;stroke-dasharray:2.0,2.0;" x1="905" x2="1087" y1="725.8499" y2="725.8499"/><text fill="#008080" font-family="sans-serif" font-size="12" lengthAdjust="spacing" textLength="74" x="922" y="715.3339">Validation OK</text><polygon fill="#008080" points="1300,762.1941,1310,766.1941,1300,770.1941,1304,766.1941" style="stroke:#008080;stroke-width:1.0;"/><line style="stroke:#008080;stroke-width:1.0;" x1="900" x2="1306" y1="766.1941" y2="766.1941"/><text fill="#008080" font-family="sans-serif" font-size="12" lengthAdjust="spacing" textLength="146" x="912" y="755.678">Persister SlotAssignments</text><polygon fill="#008080" points="911,802.5382,901,806.5382,911,810.5382,907,806.5382" style="stroke:#008080;stroke-width:1.0;"/><line style="stroke:#008080;stroke-width:1.0;stroke-dasharray:2.0,2.0;" x1="905" x2="1311" y1="806.5382" y2="806.5382"/><text fill="#008080" font-family="sans-serif" font-size="12" lengthAdjust="spacing" textLength="16" x="922" y="796.0221">OK</text><polygon fill="#008080" points="387,842.8823,377,846.8823,387,850.8823,383,846.8823" style="stroke:#008080;stroke-width:1.0;"/><line style="stroke:#008080;stroke-width:1.0;stroke-dasharray:2.0,2.0;" x1="381" x2="894" y1="846.8823" y2="846.8823"/><text fill="#008080" font-family="sans-serif" font-size="12" lengthAdjust="spacing" textLength="103" x="398" y="836.3663">200 OK (Confirm&#233;)</text><polygon fill="#008080" points="76,883.2264,66,887.2264,76,891.2264,72,887.2264" style="stroke:#008080;stroke-width:1.0;"/><line style="stroke:#008080;stroke-width:1.0;" x1="70" x2="370" y1="887.2264" y2="887.2264"/><text fill="#008080" font-family="sans-serif" font-size="12" lengthAdjust="spacing" textLength="186" x="87" y="876.7104">Notification "Planning enregistr&#233;"</text><!--SRC=[XLFBRjim4BphAxQwH4RZ9kYfoA5072T5qaUCACYTeTOAKvfq-J3Il-cn-WxzM8QIxKXDWEeWKDHoE3Cx-quPgMF5j8uhFGqFlEBfUiaVqcUM2Hcie_pCMbSf8m97bvFmr6razpQQIhZVbCzvoSOppTchsh2ZuePnTj8LNpXhGYRnSbOdCBFKIWOwDxKoJCLjsTTzirBeVZDZ4rG0S2aVk8gQSMDtN2ViqyLbVmABVUKUjcItKHAuLs8Z-hgPa3_PL5liIWHnBy0sdwKtj5VMcBPXtnNFPrdMwQFfvvuxdT0NhRndDwtQPcsne6ZeAaAwZzrQkhOnB69oJ6rWr5PrrWC0QQ0EU1kX5NXmgMquzScq5OGKQsSVMORBwf0y_XnISesVmkG5T-ZI4FFL5UTFRIDZ05VDdZxHfcsSMYefWhB6Kz5LJyOO0yKtRUEZ3Y9GeVnTedj8y22odsGLlqad4pfGtuS0HrHGloBCRPi0JMsJ4Pwz7xt59tIw1AS7iBormWUg3jWvn8pUKndhcdrYImekQArgU8HiQ7IjOyHZo1trxno2Osh_qAC5aZu00-ZGYIeLVXkfoN_uv0lhLReTqI2nOObUIzd-zJaoLxsHaJETzBek4lcvSLmh3nukVma10el2nNLvIqTYhOxaRh2iEzhnek8YQaqbAFEWxodhMJeFc56U1sag78E1Hsuy8rJMN5O3XF4KZ340Efy1wQuF2LJ0yhQfqKIevv22cDhgQGcwyIb3zVGD9lFj9FqBlzT-rrDDJRt-EWpIcDrEQKTgmSx3If0QZulViUYXWTUT6hJau_4njgb8eLHkrJQZx2PBN_N_XmtxAK46j316cPfury-soOSO_PW_0m00]--></g></svg>