<?xml version="1.0" encoding="us-ascii" standalone="no"?><svg xmlns="http://www.w3.org/2000/svg" xmlns:xlink="http://www.w3.org/1999/xlink" contentStyleType="text/css" height="901px" preserveAspectRatio="none" style="width:992px;height:901px;background:#FFFFFF;" version="1.1" viewBox="0 0 992 901" width="992px" zoomAndPan="magnify"><defs/><g><rect fill="#FFFFFF" height="578.1617" style="stroke:#008080;stroke-width:1.0;" width="10" x="457" y="174.0323"/><rect fill="#FFFFFF" height="497.4735" style="stroke:#008080;stroke-width:1.0;" width="10" x="688" y="214.3765"/><rect fill="#FFFFFF" height="40.3441" style="stroke:#008080;stroke-width:1.0;" width="10" x="905" y="408.097"/><rect fill="#FFFFFF" height="40.3441" style="stroke:#008080;stroke-width:1.0;" width="10" x="905" y="535.4735"/><rect fill="#FFFFFF" height="336.4411" rx="4" ry="4" style="stroke:#008080;stroke-width:1.5;" width="362" x="624" y="336.0647"/><rect fill="#FFFFFF" height="202.0647" rx="4" ry="4" style="stroke:#008080;stroke-width:1.5;" width="342" x="634" y="463.4411"/><path d="M634,583.8176 L976,583.8176 L976,661.5058 A4,4 0 0 1 972,665.5058 L638,665.5058 A4,4 0 0 1 634,661.5058 L634,583.8176 " fill="#FFFFFF" style="stroke:none;stroke-width:1.0;"/><line style="stroke:#008080;stroke-width:0.5;stroke-dasharray:5.0,5.0;" x1="50" x2="50" y1="91.3441" y2="810.5382"/><line style="stroke:#008080;stroke-width:0.5;stroke-dasharray:5.0,5.0;" x1="253" x2="253" y1="91.3441" y2="810.5382"/><line style="stroke:#008080;stroke-width:0.5;stroke-dasharray:5.0,5.0;" x1="462" x2="462" y1="91.3441" y2="810.5382"/><line style="stroke:#008080;stroke-width:0.5;stroke-dasharray:5.0,5.0;" x1="693" x2="693" y1="91.3441" y2="810.5382"/><line style="stroke:#008080;stroke-width:0.5;stroke-dasharray:5.0,5.0;" x1="910" x2="910" y1="91.3441" y2="810.5382"/><text fill="#000000" font-family="sans-serif" font-size="12" lengthAdjust="spacing" textLength="74" x="10" y="82.8281">Coordinateur</text><ellipse cx="50" cy="13.5" fill="#F8F9FA" rx="8" ry="8" style="stroke:#008080;stroke-width:0.5;"/><path d="M50,21.5 L50,48.5 M37,29.5 L63,29.5 M50,48.5 L37,63.5 M50,48.5 L63,63.5 " fill="none" style="stroke:#008080;stroke-width:0.5;"/><text fill="#000000" font-family="sans-serif" font-size="12" lengthAdjust="spacing" textLength="74" x="10" y="827.3663">Coordinateur</text><ellipse cx="50" cy="844.3823" fill="#F8F9FA" rx="8" ry="8" style="stroke:#008080;stroke-width:0.5;"/><path d="M50,852.3823 L50,879.3823 M37,860.3823 L63,860.3823 M50,879.3823 L37,894.3823 M50,879.3823 L63,894.3823 " fill="none" style="stroke:#008080;stroke-width:0.5;"/><text fill="#000000" font-family="sans-serif" font-size="12" lengthAdjust="spacing" textLength="92" x="204" y="82.8281">Interface Import</text><path d="M232.5,37 L232.5,61 M232.5,49 L249.5,49 " fill="none" style="stroke:#008080;stroke-width:0.5;"/><ellipse cx="261.5" cy="49" fill="#F8F9FA" rx="12" ry="12" style="stroke:#008080;stroke-width:0.5;"/><text fill="#000000" font-family="sans-serif" font-size="12" lengthAdjust="spacing" textLength="92" x="204" y="827.3663">Interface Import</text><path d="M232.5,839.8823 L232.5,863.8823 M232.5,851.8823 L249.5,851.8823 " fill="none" style="stroke:#008080;stroke-width:0.5;"/><ellipse cx="261.5" cy="851.8823" fill="#F8F9FA" rx="12" ry="12" style="stroke:#008080;stroke-width:0.5;"/><text fill="#000000" font-family="sans-serif" font-size="12" lengthAdjust="spacing" textLength="56" x="431" y="82.8281">Controller</text><ellipse cx="462" cy="49" fill="#F8F9FA" rx="12" ry="12" style="stroke:#008080;stroke-width:0.5;"/><polygon fill="#008080" points="458,37,464,32,462,37,464,42,458,37" style="stroke:#008080;stroke-width:1.0;"/><text fill="#000000" font-family="sans-serif" font-size="12" lengthAdjust="spacing" textLength="56" x="431" y="827.3663">Controller</text><ellipse cx="462" cy="851.8823" fill="#F8F9FA" rx="12" ry="12" style="stroke:#008080;stroke-width:0.5;"/><polygon fill="#008080" points="458,839.8823,464,834.8823,462,839.8823,464,844.8823,458,839.8823" style="stroke:#008080;stroke-width:1.0;"/><text fill="#000000" font-family="sans-serif" font-size="12" lengthAdjust="spacing" textLength="82" x="649" y="82.8281">Import Service</text><ellipse cx="693" cy="49" fill="#F8F9FA" rx="12" ry="12" style="stroke:#008080;stroke-width:0.5;"/><line style="stroke:#008080;stroke-width:0.5;" x1="681" x2="705" y1="63" y2="63"/><text fill="#000000" font-family="sans-serif" font-size="12" lengthAdjust="spacing" textLength="82" x="649" y="827.3663">Import Service</text><ellipse cx="693" cy="851.8823" fill="#F8F9FA" rx="12" ry="12" style="stroke:#008080;stroke-width:0.5;"/><line style="stroke:#008080;stroke-width:0.5;" x1="681" x2="705" y1="865.8823" y2="865.8823"/><text fill="#000000" font-family="sans-serif" font-size="12" lengthAdjust="spacing" textLength="96" x="859" y="82.8281">Base de donn&#233;es</text><path d="M892,29 C892,19 910,19 910,19 C910,19 928,19 928,29 L928,55 C928,65 910,65 910,65 C910,65 892,65 892,55 L892,29 " fill="#F8F9FA" style="stroke:#008080;stroke-width:1.5;"/><path d="M892,29 C892,39 910,39 910,39 C910,39 928,39 928,29 " fill="none" style="stroke:#008080;stroke-width:1.5;"/><text fill="#000000" font-family="sans-serif" font-size="12" lengthAdjust="spacing" textLength="96" x="859" y="827.3663">Base de donn&#233;es</text><path d="M892,845.8823 C892,835.8823 910,835.8823 910,835.8823 C910,835.8823 928,835.8823 928,845.8823 L928,871.8823 C928,881.8823 910,881.8823 910,881.8823 C910,881.8823 892,881.8823 892,871.8823 L892,845.8823 " fill="#F8F9FA" style="stroke:#008080;stroke-width:1.5;"/><path d="M892,845.8823 C892,855.8823 910,855.8823 910,855.8823 C910,855.8823 928,855.8823 928,845.8823 " fill="none" style="stroke:#008080;stroke-width:1.5;"/><rect fill="#FFFFFF" height="578.1617" style="stroke:#008080;stroke-width:1.0;" width="10" x="457" y="174.0323"/><rect fill="#FFFFFF" height="497.4735" style="stroke:#008080;stroke-width:1.0;" width="10" x="688" y="214.3765"/><rect fill="#FFFFFF" height="40.3441" style="stroke:#008080;stroke-width:1.0;" width="10" x="905" y="408.097"/><rect fill="#FFFFFF" height="40.3441" style="stroke:#008080;stroke-width:1.0;" width="10" x="905" y="535.4735"/><polygon fill="#008080" points="241,129.6882,251,133.6882,241,137.6882,245,133.6882" style="stroke:#008080;stroke-width:1.0;"/><line style="stroke:#008080;stroke-width:1.0;" x1="50" x2="247" y1="133.6882" y2="133.6882"/><text fill="#008080" font-family="sans-serif" font-size="12" lengthAdjust="spacing" textLength="169" x="62" y="123.1722">S&#233;lectionne fichier (CSV/Excel)</text><polygon fill="#008080" points="445,170.0323,455,174.0323,445,178.0323,449,174.0323" style="stroke:#008080;stroke-width:1.0;"/><line style="stroke:#008080;stroke-width:1.0;" x1="253" x2="451" y1="174.0323" y2="174.0323"/><text fill="#008080" font-family="sans-serif" font-size="12" lengthAdjust="spacing" textLength="175" x="265" y="163.5163">POST /api/import/students (file)</text><polygon fill="#008080" points="676,210.3765,686,214.3765,676,218.3765,680,214.3765" style="stroke:#008080;stroke-width:1.0;"/><line style="stroke:#008080;stroke-width:1.0;" x1="467" x2="682" y1="214.3765" y2="214.3765"/><text fill="#008080" font-family="sans-serif" font-size="12" lengthAdjust="spacing" textLength="126" x="479" y="203.8604">importerEtudiants(file)</text><line style="stroke:#008080;stroke-width:1.0;" x1="698" x2="740" y1="254.7206" y2="254.7206"/><line style="stroke:#008080;stroke-width:1.0;" x1="740" x2="740" y1="254.7206" y2="267.7206"/><line style="stroke:#008080;stroke-width:1.0;" x1="699" x2="740" y1="267.7206" y2="267.7206"/><polygon fill="#008080" points="709,263.7206,699,267.7206,709,271.7206,705,267.7206" style="stroke:#008080;stroke-width:1.0;"/><text fill="#008080" font-family="sans-serif" font-size="12" lengthAdjust="spacing" textLength="88" x="710" y="244.2045">Parser le fichier</text><line style="stroke:#008080;stroke-width:1.0;" x1="698" x2="740" y1="308.0647" y2="308.0647"/><line style="stroke:#008080;stroke-width:1.0;" x1="740" x2="740" y1="308.0647" y2="321.0647"/><line style="stroke:#008080;stroke-width:1.0;" x1="699" x2="740" y1="321.0647" y2="321.0647"/><polygon fill="#008080" points="709,317.0647,699,321.0647,709,325.0647,705,321.0647" style="stroke:#008080;stroke-width:1.0;"/><text fill="#008080" font-family="sans-serif" font-size="12" lengthAdjust="spacing" textLength="183" x="710" y="297.5487">Valider format et donn&#233;es requis</text><path d="M628,336.0647 L705,336.0647 L705,354.4088 L695,364.4088 L624,364.4088 L624,340.0647 A4,4 0 0 1 628,336.0647 " fill="#F8F9FA" style="stroke:#008080;stroke-width:1.5;"/><rect fill="none" height="336.4411" rx="4" ry="4" style="stroke:#008080;stroke-width:1.5;" width="362" x="624" y="336.0647"/><text fill="#000000" font-family="sans-serif" font-size="12" font-weight="bold" lengthAdjust="spacing" textLength="26" x="644" y="354.8928">loop</text><text fill="#000000" font-family="sans-serif" font-size="12" font-weight="bold" lengthAdjust="spacing" textLength="117" x="725" y="355.8928">[pour chaque ligne]</text><polygon fill="#008080" points="893,404.097,903,408.097,893,412.097,897,408.097" style="stroke:#008080;stroke-width:1.0;"/><line style="stroke:#008080;stroke-width:1.0;" x1="698" x2="899" y1="408.097" y2="408.097"/><text fill="#008080" font-family="sans-serif" font-size="12" lengthAdjust="spacing" textLength="178" x="710" y="397.581">V&#233;rifier si CNE/Email existe d&#233;j&#224;</text><polygon fill="#008080" points="709,444.4411,699,448.4411,709,452.4411,705,448.4411" style="stroke:#008080;stroke-width:1.0;"/><line style="stroke:#008080;stroke-width:1.0;stroke-dasharray:2.0,2.0;" x1="703" x2="909" y1="448.4411" y2="448.4411"/><text fill="#008080" font-family="sans-serif" font-size="12" lengthAdjust="spacing" textLength="45" x="720" y="437.9251">R&#233;sultat</text><path d="M638,463.4411 L705,463.4411 L705,481.7853 L695,491.7853 L634,491.7853 L634,467.4411 A4,4 0 0 1 638,463.4411 " fill="#F8F9FA" style="stroke:#008080;stroke-width:1.5;"/><rect fill="none" height="202.0647" rx="4" ry="4" style="stroke:#008080;stroke-width:1.5;" width="342" x="634" y="463.4411"/><text fill="#000000" font-family="sans-serif" font-size="12" font-weight="bold" lengthAdjust="spacing" textLength="16" x="654" y="482.2692">alt</text><text fill="#000000" font-family="sans-serif" font-size="12" font-weight="bold" lengthAdjust="spacing" textLength="94" x="725" y="483.2692">[Donn&#233;e valide]</text><polygon fill="#008080" points="893,531.4735,903,535.4735,893,539.4735,897,535.4735" style="stroke:#008080;stroke-width:1.0;"/><line style="stroke:#008080;stroke-width:1.0;" x1="698" x2="899" y1="535.4735" y2="535.4735"/><text fill="#008080" font-family="sans-serif" font-size="12" lengthAdjust="spacing" textLength="161" x="710" y="524.9575">Sauvegarder nouvel &#201;tudiant</text><polygon fill="#008080" points="709,571.8176,699,575.8176,709,579.8176,705,575.8176" style="stroke:#008080;stroke-width:1.0;"/><line style="stroke:#008080;stroke-width:1.0;stroke-dasharray:2.0,2.0;" x1="703" x2="909" y1="575.8176" y2="575.8176"/><text fill="#008080" font-family="sans-serif" font-size="12" lengthAdjust="spacing" textLength="16" x="720" y="565.3016">OK</text><line style="stroke:#008080;stroke-width:1.0;stroke-dasharray:2.0,2.0;" x1="634" x2="976" y1="584.8176" y2="584.8176"/><text fill="#000000" font-family="sans-serif" font-size="12" font-weight="bold" lengthAdjust="spacing" textLength="45" x="644" y="602.6457">[Erreur]</text><line style="stroke:#008080;stroke-width:1.0;" x1="698" x2="740" y1="644.5058" y2="644.5058"/><line style="stroke:#008080;stroke-width:1.0;" x1="740" x2="740" y1="644.5058" y2="657.5058"/><line style="stroke:#008080;stroke-width:1.0;" x1="699" x2="740" y1="657.5058" y2="657.5058"/><polygon fill="#008080" points="709,653.5058,699,657.5058,709,661.5058,705,657.5058" style="stroke:#008080;stroke-width:1.0;"/><text fill="#008080" font-family="sans-serif" font-size="12" lengthAdjust="spacing" textLength="125" x="710" y="633.9898">Logger erreur de ligne</text><polygon fill="#008080" points="478,707.8499,468,711.8499,478,715.8499,474,711.8499" style="stroke:#008080;stroke-width:1.0;"/><line style="stroke:#008080;stroke-width:1.0;stroke-dasharray:2.0,2.0;" x1="472" x2="692" y1="711.8499" y2="711.8499"/><text fill="#008080" font-family="sans-serif" font-size="12" lengthAdjust="spacing" textLength="187" x="489" y="701.3339">Rapport d'import (Succ&#232;s/&#201;checs)</text><polygon fill="#008080" points="264,748.1941,254,752.1941,264,756.1941,260,752.1941" style="stroke:#008080;stroke-width:1.0;"/><line style="stroke:#008080;stroke-width:1.0;stroke-dasharray:2.0,2.0;" x1="258" x2="461" y1="752.1941" y2="752.1941"/><text fill="#008080" font-family="sans-serif" font-size="12" lengthAdjust="spacing" textLength="136" x="275" y="741.678">200 OK (Summary JSON)</text><polygon fill="#008080" points="61,788.5382,51,792.5382,61,796.5382,57,792.5382" style="stroke:#008080;stroke-width:1.0;"/><line style="stroke:#008080;stroke-width:1.0;stroke-dasharray:2.0,2.0;" x1="55" x2="252" y1="792.5382" y2="792.5382"/><text fill="#008080" font-family="sans-serif" font-size="12" lengthAdjust="spacing" textLength="137" x="72" y="782.0221">Afficher bilan de l'import</text><!--SRC=[RPD1Rjim44NtFCNKczeBLq6NMHIeRGL8MiH1L6HFaoER1KKg96MaHyWjkgpFeOjrICcox5Y015AQ__HdzFL96Q4RYL0tbPw77LOuhqly4hUCSH6iWydIMYULuG4RDm7k8TrW6ziOoTqVcDoRWAxa0k6-ggqBgUZEMHEOe8kpEaBIGkCHSTmoD465I4bQAD3jbS1KrQ-Pv85lk4UOBEAL_4fhJ7j0dyfM2yQI9vX_wzuBjr2q1uqYA2f4A9NOANGmNHOlMVucKCzOLqYAanUIFQsBNv3nMcKg-SbyeFcOu65QAespE1IrfrcCMs0Z105xsqJh6EXoWYXEb4l8iKDsr9p9dxZpXDH30zVBNhXMakfAwoeU0CCm7d3usYZFcBQsXjes3iIElpO8McqDCg1ZX5mj8gqzE5N6QNa5oySyookkDE2RycHOjeVVxTya79gW-SSzgUTdlfxRWszqu24zbdWfw2WwmAgp2_lKIBfzpLd1cprkkOkz6ajh3UrxFzb1TFcIgyxMFuPd7ssXfepbpb7ShravKNxQxPQiO2gDgJmD5OrayJnziCkWFVCwvLr-xa82qw8Heltdi_PTx53u6HjP6t8oJjeexLzlRgYfoAYg-4y-5El7Cy0uhNtoawFurzp2zp86Z9WRfRb9hVIss7y0]--></g></svg>