<?xml version="1.0" encoding="UTF-8" standalone="no"?><svg xmlns="http://www.w3.org/2000/svg" xmlns:xlink="http://www.w3.org/1999/xlink" contentScriptType="application/ecmascript" contentStyleType="text/css" height="895px" preserveAspectRatio="none" style="width:998px;height:895px;" version="1.1" viewBox="0 0 998 895" width="998px" zoomAndPan="magnify"><defs/><g><rect fill="#FFFFFF" height="557.8176" style="stroke: #008080; stroke-width: 1.0;" width="10" x="486" y="175.0323"/><rect fill="#FFFFFF" height="477.1294" style="stroke: #008080; stroke-width: 1.0;" width="10" x="689" y="215.3765"/><rect fill="#FFFFFF" height="40.3441" style="stroke: #008080; stroke-width: 1.0;" width="10" x="936" y="255.7206"/><rect fill="#FFFFFF" height="416.7853" rx="4" ry="4" style="stroke: #008080; stroke-width: 2.0;" width="823" x="13" y="364.4088"/><rect fill="#FFFFFF" height="149.3765" style="stroke: none; stroke-width: 1.0;" width="823" x="13" y="631.8176"/><line style="stroke: #008080; stroke-width: 1.0; stroke-dasharray: 5.0,5.0;" x1="60" x2="60" y1="92.3441" y2="798.1941"/><line style="stroke: #008080; stroke-width: 1.0; stroke-dasharray: 5.0,5.0;" x1="240.5" x2="240.5" y1="92.3441" y2="798.1941"/><line style="stroke: #008080; stroke-width: 1.0; stroke-dasharray: 5.0,5.0;" x1="491" x2="491" y1="92.3441" y2="798.1941"/><line style="stroke: #008080; stroke-width: 1.0; stroke-dasharray: 5.0,5.0;" x1="693.5" x2="693.5" y1="92.3441" y2="798.1941"/><line style="stroke: #008080; stroke-width: 1.0; stroke-dasharray: 5.0,5.0;" x1="941" x2="941" y1="92.3441" y2="798.1941"/><text fill="#000000" font-family="sans-serif" font-size="12" lengthAdjust="spacingAndGlyphs" textLength="58" x="28" y="83.8281">Utilisateur</text><ellipse cx="60" cy="13" fill="#F8F9FA" rx="8" ry="8" style="stroke: #008080; stroke-width: 2.0;"/><path d="M60,21 L60,48 M47,29 L73,29 M60,48 L47,63 M60,48 L73,63 " fill="none" style="stroke: #008080; stroke-width: 2.0;"/><text fill="#000000" font-family="sans-serif" font-size="12" lengthAdjust="spacingAndGlyphs" textLength="58" x="28" y="815.0221">Utilisateur</text><ellipse cx="60" cy="833.5382" fill="#F8F9FA" rx="8" ry="8" style="stroke: #008080; stroke-width: 2.0;"/><path d="M60,841.5382 L60,868.5382 M47,849.5382 L73,849.5382 M60,868.5382 L47,883.5382 M60,868.5382 L73,883.5382 " fill="none" style="stroke: #008080; stroke-width: 2.0;"/><text fill="#000000" font-family="sans-serif" font-size="12" lengthAdjust="spacingAndGlyphs" textLength="51" x="212.5" y="83.8281">Interface</text><path d="M220.5,38 L220.5,62 M220.5,50 L237.5,50 " fill="none" style="stroke: #008080; stroke-width: 2.0;"/><ellipse cx="249.5" cy="50" fill="#F8F9FA" rx="12" ry="12" style="stroke: #008080; stroke-width: 2.0;"/><text fill="#000000" font-family="sans-serif" font-size="12" lengthAdjust="spacingAndGlyphs" textLength="51" x="212.5" y="815.0221">Interface</text><path d="M220.5,827.5382 L220.5,851.5382 M220.5,839.5382 L237.5,839.5382 " fill="none" style="stroke: #008080; stroke-width: 2.0;"/><ellipse cx="249.5" cy="839.5382" fill="#F8F9FA" rx="12" ry="12" style="stroke: #008080; stroke-width: 2.0;"/><text fill="#000000" font-family="sans-serif" font-size="12" lengthAdjust="spacingAndGlyphs" textLength="56" x="460" y="83.8281">Controller</text><ellipse cx="491" cy="50" fill="#F8F9FA" rx="12" ry="12" style="stroke: #008080; stroke-width: 2.0;"/><polygon fill="#008080" points="487,38,493,33,491,38,493,43,487,38" style="stroke: #008080; stroke-width: 1.0;"/><text fill="#000000" font-family="sans-serif" font-size="12" lengthAdjust="spacingAndGlyphs" textLength="56" x="460" y="815.0221">Controller</text><ellipse cx="491" cy="839.5382" fill="#F8F9FA" rx="12" ry="12" style="stroke: #008080; stroke-width: 2.0;"/><polygon fill="#008080" points="487,827.5382,493,822.5382,491,827.5382,493,832.5382,487,827.5382" style="stroke: #008080; stroke-width: 1.0;"/><text fill="#000000" font-family="sans-serif" font-size="12" lengthAdjust="spacingAndGlyphs" textLength="89" x="646.5" y="83.8281">Security Service</text><ellipse cx="694" cy="50" fill="#F8F9FA" rx="12" ry="12" style="stroke: #008080; stroke-width: 2.0;"/><line style="stroke: #008080; stroke-width: 2.0;" x1="682" x2="706" y1="64" y2="64"/><text fill="#000000" font-family="sans-serif" font-size="12" lengthAdjust="spacingAndGlyphs" textLength="89" x="646.5" y="815.0221">Security Service</text><ellipse cx="694" cy="839.5382" fill="#F8F9FA" rx="12" ry="12" style="stroke: #008080; stroke-width: 2.0;"/><line style="stroke: #008080; stroke-width: 2.0;" x1="682" x2="706" y1="853.5382" y2="853.5382"/><text fill="#000000" font-family="sans-serif" font-size="12" lengthAdjust="spacingAndGlyphs" textLength="96" x="890" y="83.8281">Base de données</text><path d="M923,30 C923,20 941,20 941,20 C941,20 959,20 959,30 L959,56 C959,66 941,66 941,66 C941,66 923,66 923,56 L923,30 " fill="#F8F9FA" style="stroke: #008080; stroke-width: 1.5;"/><path d="M923,30 C923,40 941,40 941,40 C941,40 959,40 959,30 " fill="none" style="stroke: #008080; stroke-width: 1.5;"/><text fill="#000000" font-family="sans-serif" font-size="12" lengthAdjust="spacingAndGlyphs" textLength="96" x="890" y="815.0221">Base de données</text><path d="M923,833.5382 C923,823.5382 941,823.5382 941,823.5382 C941,823.5382 959,823.5382 959,833.5382 L959,859.5382 C959,869.5382 941,869.5382 941,869.5382 C941,869.5382 923,869.5382 923,859.5382 L923,833.5382 " fill="#F8F9FA" style="stroke: #008080; stroke-width: 1.5;"/><path d="M923,833.5382 C923,843.5382 941,843.5382 941,843.5382 C941,843.5382 959,843.5382 959,833.5382 " fill="none" style="stroke: #008080; stroke-width: 1.5;"/><rect fill="#FFFFFF" height="557.8176" style="stroke: #008080; stroke-width: 1.0;" width="10" x="486" y="175.0323"/><rect fill="#FFFFFF" height="477.1294" style="stroke: #008080; stroke-width: 1.0;" width="10" x="689" y="215.3765"/><rect fill="#FFFFFF" height="40.3441" style="stroke: #008080; stroke-width: 1.0;" width="10" x="936" y="255.7206"/><polygon fill="#008080" points="229,130.6882,239,134.6882,229,138.6882,233,134.6882" style="stroke: #008080; stroke-width: 1.0;"/><line style="stroke: #008080; stroke-width: 1.0;" x1="60" x2="235" y1="134.6882" y2="134.6882"/><text fill="#008080" font-family="sans-serif" font-size="12" lengthAdjust="spacingAndGlyphs" textLength="95" x="72" y="124.1722">Saisit identifiants</text><polygon fill="#008080" points="474,171.0323,484,175.0323,474,179.0323,478,175.0323" style="stroke: #008080; stroke-width: 1.0;"/><line style="stroke: #008080; stroke-width: 1.0;" x1="241" x2="480" y1="175.0323" y2="175.0323"/><text fill="#008080" font-family="sans-serif" font-size="12" lengthAdjust="spacingAndGlyphs" textLength="216" x="253" y="164.5163">POST /api/auth/login (email, password)</text><polygon fill="#008080" points="677,211.3765,687,215.3765,677,219.3765,681,215.3765" style="stroke: #008080; stroke-width: 1.0;"/><line style="stroke: #008080; stroke-width: 1.0;" x1="496" x2="683" y1="215.3765" y2="215.3765"/><text fill="#008080" font-family="sans-serif" font-size="12" lengthAdjust="spacingAndGlyphs" textLength="164" x="508" y="204.8604">authentifier(email, password)</text><polygon fill="#008080" points="924,251.7206,934,255.7206,924,259.7206,928,255.7206" style="stroke: #008080; stroke-width: 1.0;"/><line style="stroke: #008080; stroke-width: 1.0;" x1="699" x2="930" y1="255.7206" y2="255.7206"/><text fill="#008080" font-family="sans-serif" font-size="12" lengthAdjust="spacingAndGlyphs" textLength="179" x="711" y="245.2045">Rechercher utilisateur par email</text><polygon fill="#008080" points="710,292.0647,700,296.0647,710,300.0647,706,296.0647" style="stroke: #008080; stroke-width: 1.0;"/><line style="stroke: #008080; stroke-width: 1.0; stroke-dasharray: 2.0,2.0;" x1="704" x2="940" y1="296.0647" y2="296.0647"/><text fill="#008080" font-family="sans-serif" font-size="12" lengthAdjust="spacingAndGlyphs" textLength="203" x="721" y="285.5487">Informations utilisateur + Hash MDP</text><line style="stroke: #008080; stroke-width: 1.0;" x1="699" x2="741" y1="336.4088" y2="336.4088"/><line style="stroke: #008080; stroke-width: 1.0;" x1="741" x2="741" y1="336.4088" y2="349.4088"/><line style="stroke: #008080; stroke-width: 1.0;" x1="700" x2="741" y1="349.4088" y2="349.4088"/><polygon fill="#008080" points="710,345.4088,700,349.4088,710,353.4088,706,349.4088" style="stroke: #008080; stroke-width: 1.0;"/><text fill="#008080" font-family="sans-serif" font-size="12" lengthAdjust="spacingAndGlyphs" textLength="178" x="711" y="325.8928">Vérifier mot de passe (hachage)</text><path d="M17,364.4088 L84,364.4088 L84,382.4088 L74,392.4088 L13,392.4088 L13,368.4088 " fill="#F8F9FA" style="stroke: #008080; stroke-width: 1.0;"/><rect fill="none" height="416.7853" rx="4" ry="4" style="stroke: #008080; stroke-width: 2.0;" width="823" x="13" y="364.4088"/><text fill="#000000" font-family="sans-serif" font-size="12" font-weight="bold" lengthAdjust="spacingAndGlyphs" textLength="16" x="33" y="383.2369">alt</text><text fill="#000000" font-family="sans-serif" font-size="12" font-weight="bold" lengthAdjust="spacingAndGlyphs" textLength="48" x="104" y="384.2369">[Succès]</text><line style="stroke: #008080; stroke-width: 1.0;" x1="699" x2="741" y1="436.4411" y2="436.4411"/><line style="stroke: #008080; stroke-width: 1.0;" x1="741" x2="741" y1="436.4411" y2="449.4411"/><line style="stroke: #008080; stroke-width: 1.0;" x1="700" x2="741" y1="449.4411" y2="449.4411"/><polygon fill="#008080" points="710,445.4411,700,449.4411,710,453.4411,706,449.4411" style="stroke: #008080; stroke-width: 1.0;"/><text fill="#008080" font-family="sans-serif" font-size="12" lengthAdjust="spacingAndGlyphs" textLength="108" x="711" y="425.9251">Générer Token JWT</text><polygon fill="#008080" points="507,485.7853,497,489.7853,507,493.7853,503,489.7853" style="stroke: #008080; stroke-width: 1.0;"/><line style="stroke: #008080; stroke-width: 1.0; stroke-dasharray: 2.0,2.0;" x1="501" x2="688" y1="489.7853" y2="489.7853"/><text fill="#008080" font-family="sans-serif" font-size="12" lengthAdjust="spacingAndGlyphs" textLength="99" x="518" y="479.2692">Token JWT + Infos</text><polygon fill="#008080" points="252,526.1294,242,530.1294,252,534.1294,248,530.1294" style="stroke: #008080; stroke-width: 1.0;"/><line style="stroke: #008080; stroke-width: 1.0; stroke-dasharray: 2.0,2.0;" x1="246" x2="485" y1="530.1294" y2="530.1294"/><text fill="#008080" font-family="sans-serif" font-size="12" lengthAdjust="spacingAndGlyphs" textLength="136" x="263" y="519.6133">200 OK (JWT, Rôle, Infos)</text><line style="stroke: #008080; stroke-width: 1.0;" x1="241" x2="283" y1="570.4735" y2="570.4735"/><line style="stroke: #008080; stroke-width: 1.0;" x1="283" x2="283" y1="570.4735" y2="583.4735"/><line style="stroke: #008080; stroke-width: 1.0;" x1="242" x2="283" y1="583.4735" y2="583.4735"/><polygon fill="#008080" points="252,579.4735,242,583.4735,252,587.4735,248,583.4735" style="stroke: #008080; stroke-width: 1.0;"/><text fill="#008080" font-family="sans-serif" font-size="12" lengthAdjust="spacingAndGlyphs" textLength="79" x="253" y="559.9575">Stocker Token</text><polygon fill="#008080" points="71,619.8176,61,623.8176,71,627.8176,67,623.8176" style="stroke: #008080; stroke-width: 1.0;"/><line style="stroke: #008080; stroke-width: 1.0; stroke-dasharray: 2.0,2.0;" x1="65" x2="240" y1="623.8176" y2="623.8176"/><text fill="#008080" font-family="sans-serif" font-size="12" lengthAdjust="spacingAndGlyphs" textLength="138" x="82" y="613.3016">Afficher Tableau de bord</text><line style="stroke: #008080; stroke-width: 1.0; stroke-dasharray: 2.0,2.0;" x1="13" x2="836" y1="632.8176" y2="632.8176"/><text fill="#000000" font-family="sans-serif" font-size="12" font-weight="bold" lengthAdjust="spacingAndGlyphs" textLength="42" x="23" y="650.6457">[Échec]</text><polygon fill="#008080" points="507,688.5058,497,692.5058,507,696.5058,503,692.5058" style="stroke: #008080; stroke-width: 1.0;"/><line style="stroke: #008080; stroke-width: 1.0; stroke-dasharray: 2.0,2.0;" x1="501" x2="693" y1="692.5058" y2="692.5058"/><text fill="#008080" font-family="sans-serif" font-size="12" lengthAdjust="spacingAndGlyphs" textLength="29" x="518" y="681.9898">Error</text><polygon fill="#008080" points="252,728.8499,242,732.8499,252,736.8499,248,732.8499" style="stroke: #008080; stroke-width: 1.0;"/><line style="stroke: #008080; stroke-width: 1.0; stroke-dasharray: 2.0,2.0;" x1="246" x2="490" y1="732.8499" y2="732.8499"/><text fill="#008080" font-family="sans-serif" font-size="12" lengthAdjust="spacingAndGlyphs" textLength="100" x="263" y="722.3339">401 Unauthorized</text><polygon fill="#008080" points="71,769.1941,61,773.1941,71,777.1941,67,773.1941" style="stroke: #008080; stroke-width: 1.0;"/><line style="stroke: #008080; stroke-width: 1.0; stroke-dasharray: 2.0,2.0;" x1="65" x2="240" y1="773.1941" y2="773.1941"/><text fill="#008080" font-family="sans-serif" font-size="12" lengthAdjust="spacingAndGlyphs" textLength="147" x="82" y="762.678">Afficher message d'erreur</text><!--MD5=[a76f517c96a5b3c61ccfa09060592df1]
@startuml

skinparam shadowing false
skinparam roundcorner 8
skinparam Padding 5
skinparam defaultFontName "SansSerif"
skinparam defaultFontSize 12

skinparam ActivityBackgroundColor #F8F9FA
skinparam ActivityBorderColor #008080
skinparam ActivityDiamondBackgroundColor #E67E22
skinparam ActivityDiamondBorderColor #E67E22
skinparam ActivityDiamondFontColor #FFFFFF

skinparam ActorBackgroundColor #F8F9FA
skinparam ActorBorderColor #008080

skinparam ClassBackgroundColor #F8F9FA
skinparam ClassBorderColor #008080
skinparam ClassHeaderBackgroundColor #008080
skinparam ClassAttributeIconSize 0

skinparam ComponentBackgroundColor #F8F9FA
skinparam ComponentBorderColor #008080

skinparam DatabaseBackgroundColor #F8F9FA
skinparam DatabaseBorderColor #008080

skinparam NoteBackgroundColor #FFF2E6
skinparam NoteBorderColor #E67E22

skinparam StateBackgroundColor #F8F9FA
skinparam StateBorderColor #008080

skinparam UsecaseBackgroundColor #F8F9FA
skinparam UsecaseBorderColor #008080

skinparam SequenceGroupBackgroundColor #F8F9FA
skinparam SequenceGroupBorderColor #008080
skinparam SequenceLifeLineBorderColor #008080
skinparam SequenceParticipantBackgroundColor #F8F9FA
skinparam SequenceParticipantBorderColor #008080
skinparam ControlBackgroundColor #F8F9FA
skinparam ControlBorderColor #008080
skinparam BoundaryBackgroundColor #F8F9FA
skinparam BoundaryBorderColor #008080
skinparam EntityBackgroundColor #F8F9FA
skinparam EntityBorderColor #008080

skinparam ArrowColor #008080
skinparam ArrowFontColor #008080

skinparam PackageBackgroundColor #FFFFFF
skinparam PackageBorderColor #008080

actor "Utilisateur" as User
boundary "Interface" as Front
control "Controller" as Back
entity "Security Service" as SecService
database "Base de données" as DB

User -> Front : Saisit identifiants
Front -> Back : POST /api/auth/login (email, password)
activate Back

Back -> SecService : authentifier(email, password)
activate SecService

SecService -> DB : Rechercher utilisateur par email
activate DB
DB - -> SecService : Informations utilisateur + Hash MDP
deactivate DB

SecService -> SecService : Vérifier mot de passe (hachage)
alt Succès
    SecService -> SecService : Générer Token JWT
    SecService - -> Back : Token JWT + Infos
    Back - -> Front : 200 OK (JWT, Rôle, Infos)
    Front -> Front : Stocker Token
    Front - -> User : Afficher Tableau de bord
else Échec
    SecService - -> Back : Error
    deactivate SecService
    Back - -> Front : 401 Unauthorized
    deactivate Back
    Front - -> User : Afficher message d'erreur
end

@enduml

PlantUML version 1.2020.02(Sun Mar 01 11:22:07 WEST 2020)
(GPL source distribution)
Java Runtime: OpenJDK Runtime Environment
JVM: OpenJDK 64-Bit Server VM
Java Version: 21.0.11+10-1-24.04.2-Ubuntu
Operating System: Linux
Default Encoding: UTF-8
Language: en
Country: US
--></g></svg>