<?xml version="1.0" encoding="us-ascii" standalone="no"?><svg xmlns="http://www.w3.org/2000/svg" xmlns:xlink="http://www.w3.org/1999/xlink" contentStyleType="text/css" height="682px" preserveAspectRatio="none" style="width:768px;height:682px;background:#FFFFFF;" version="1.1" viewBox="0 0 768 682" width="768px" zoomAndPan="magnify"><defs/><g><!--cluster Module Administration--><g id="cluster_Module Administration"><rect fill="#FFFFFF" height="669" rx="4" ry="4" style="stroke:#008080;stroke-width:1.0;" width="620" x="142" y="7"/><text fill="#000000" font-family="sans-serif" font-size="12" font-weight="bold" lengthAdjust="spacing" textLength="139" x="382.5" y="26.8281">Module Administration</text></g><g id="elem_Dashboard"><ellipse cx="285.3477" cy="76.7695" fill="#F8F9FA" rx="109.3477" ry="24.2695" style="stroke:#008080;stroke-width:0.5;"/><text fill="#000000" font-family="sans-serif" font-size="12" lengthAdjust="spacing" textLength="145" x="212.8477" y="79.4256">Consulter tableau de bord</text></g><g id="elem_Depts"><ellipse cx="285.5861" cy="159.9172" fill="#F8F9FA" rx="105.0861" ry="23.4172" style="stroke:#008080;stroke-width:0.5;"/><text fill="#000000" font-family="sans-serif" font-size="12" lengthAdjust="spacing" textLength="134" x="218.5861" y="162.5733">G&#233;rer les d&#233;partements</text></g><g id="elem_Rooms"><ellipse cx="641.5746" cy="276.1281" fill="#F8F9FA" rx="80.0746" ry="21.6281" style="stroke:#008080;stroke-width:0.5;"/><text fill="#000000" font-family="sans-serif" font-size="12" lengthAdjust="spacing" textLength="87" x="598.0746" y="278.7841">G&#233;rer les salles</text></g><g id="elem_Students"><ellipse cx="641.7168" cy="489.1281" fill="#F8F9FA" rx="94.2168" ry="21.6281" style="stroke:#008080;stroke-width:0.5;"/><text fill="#000000" font-family="sans-serif" font-size="12" lengthAdjust="spacing" textLength="107" x="588.2168" y="491.7841">G&#233;rer les &#233;tudiants</text></g><g id="elem_Teachers"><ellipse cx="641.4481" cy="597.0896" fill="#F8F9FA" rx="100.9481" ry="22.5896" style="stroke:#008080;stroke-width:0.5;"/><text fill="#000000" font-family="sans-serif" font-size="12" lengthAdjust="spacing" textLength="123" x="579.9481" y="599.7456">G&#233;rer les enseignants</text></g><g id="elem_Coords"><ellipse cx="641.7046" cy="355.8409" fill="#F8F9FA" rx="104.7046" ry="23.3409" style="stroke:#008080;stroke-width:0.5;"/><text fill="#000000" font-family="sans-serif" font-size="12" lengthAdjust="spacing" textLength="133" x="575.2046" y="358.497">G&#233;rer les coordinateurs</text></g><g id="elem_Majors"><ellipse cx="285.3431" cy="240.8686" fill="#F8F9FA" rx="99.8431" ry="22.3686" style="stroke:#008080;stroke-width:0.5;"/><text fill="#000000" font-family="sans-serif" font-size="12" lengthAdjust="spacing" textLength="120" x="225.3431" y="243.5246">Configurer les fili&#232;res</text></g><g id="elem_Levels"><ellipse cx="285.6906" cy="321.2381" fill="#F8F9FA" rx="101.6906" ry="22.7381" style="stroke:#008080;stroke-width:0.5;"/><text fill="#000000" font-family="sans-serif" font-size="12" lengthAdjust="spacing" textLength="125" x="223.1906" y="323.8941">Configurer les niveaux</text></g><g id="elem_Audit"><ellipse cx="285.6346" cy="402.9269" fill="#F8F9FA" rx="110.1346" ry="24.4269" style="stroke:#008080;stroke-width:0.5;"/><text fill="#000000" font-family="sans-serif" font-size="12" lengthAdjust="spacing" textLength="147" x="212.1346" y="405.583">Consulter journaux d'audit</text></g><g id="elem_Import"><ellipse cx="285.7168" cy="502.7562" fill="#F8F9FA" rx="94.2168" ry="40.2562" style="stroke:#008080;stroke-width:0.5;"/><text fill="#000000" font-family="sans-serif" font-size="12" lengthAdjust="spacing" textLength="107" x="232.2168" y="492.2402">Importer en masse</text><text fill="#000000" font-family="sans-serif" font-size="12" lengthAdjust="spacing" textLength="37" x="267.2168" y="518.5843">(Excel)</text></g><g id="elem_Batch"><ellipse cx="285.4508" cy="618.7562" fill="#F8F9FA" rx="127.4508" ry="40.2562" style="stroke:#008080;stroke-width:0.5;"/><text fill="#000000" font-family="sans-serif" font-size="12" lengthAdjust="spacing" textLength="86" x="242.4508" y="608.2402">Actions par lots</text><text fill="#000000" font-family="sans-serif" font-size="12" lengthAdjust="spacing" textLength="154" x="208.4508" y="634.5843">(suppression, r&#233;affectation)</text></g><!--entity Admin--><g id="elem_Admin"><ellipse cx="48" cy="286.5" fill="#F8F9FA" rx="8" ry="8" style="stroke:#008080;stroke-width:0.5;"/><path d="M48,294.5 L48,321.5 M35,302.5 L61,302.5 M48,321.5 L35,336.5 M48,321.5 L61,336.5 " fill="none" style="stroke:#008080;stroke-width:0.5;"/><text fill="#000000" font-family="sans-serif" font-size="12" lengthAdjust="spacing" textLength="84" x="6" y="355.8281">Administrateur</text></g><!--link Import to Students--><g id="link_Import_Students"><path d="M360.48,478.3 C386.29,470.86 415.63,463.69 443,460 C471.19,456.2 478.72,456.96 507,460 C530.82,462.56 550.7727,466.265 573.2927,471.445 " fill="none" id="Import-to-Students" style="stroke:#008080;stroke-width:1.0;stroke-dasharray:7.0,7.0;"/><polygon fill="#008080" points="579.14,472.79,571.2657,466.8743,574.2672,471.6692,569.4724,474.6707,579.14,472.79" style="stroke:#008080;stroke-width:1.0;"/><text fill="#008080" font-family="sans-serif" font-size="12" lengthAdjust="spacing" textLength="52" x="449" y="448.8281">&#171;include&#187;</text></g><!--link Import to Teachers--><g id="link_Import_Teachers"><path d="M379.47,506.03 C419.4,509.25 466.17,515.6 507,528 C543.32,539.04 576.35,556.7083 602.53,572.5883 " fill="none" id="Import-to-Teachers" style="stroke:#008080;stroke-width:1.0;stroke-dasharray:7.0,7.0;"/><polygon fill="#008080" points="607.66,575.7,602.0394,567.6124,603.385,573.1069,597.8905,574.4524,607.66,575.7" style="stroke:#008080;stroke-width:1.0;"/><text fill="#008080" font-family="sans-serif" font-size="12" lengthAdjust="spacing" textLength="52" x="449" y="505.8281">&#171;include&#187;</text></g><!--link Import to Coords--><g id="link_Import_Coords"><path d="M354.25,475.32 C373.68,466.48 394.58,456.09 413,445 C427.39,436.33 428.16,429.88 443,422 C483.07,400.72 525.5506,386.0873 564.3206,375.0173 " fill="none" id="Import-to-Coords" style="stroke:#008080;stroke-width:1.0;stroke-dasharray:7.0,7.0;"/><polygon fill="#008080" points="570.09,373.37,560.3376,371.9947,565.2821,374.7428,562.5341,379.6873,570.09,373.37" style="stroke:#008080;stroke-width:1.0;"/><text fill="#008080" font-family="sans-serif" font-size="12" lengthAdjust="spacing" textLength="52" x="449" y="385.8281">&#171;include&#187;</text></g><!--link Import to Rooms--><g id="link_Import_Rooms"><path d="M362.91,479.81 C381.24,471.28 399.42,459.92 413,445 C440.24,415.06 415.87,389.05 443,359 C473.91,324.76 494.5,332.92 537,315 C555.05,307.39 569.5149,301.7375 587.1649,295.1875 " fill="none" id="Import-to-Rooms" style="stroke:#008080;stroke-width:1.0;stroke-dasharray:7.0,7.0;"/><polygon fill="#008080" points="592.79,293.1,582.9606,292.4812,588.1024,294.8396,585.744,299.9814,592.79,293.1" style="stroke:#008080;stroke-width:1.0;"/><text fill="#008080" font-family="sans-serif" font-size="12" lengthAdjust="spacing" textLength="52" x="449" y="316.8281">&#171;include&#187;</text></g><!--link Batch to Students--><g id="link_Batch_Students"><path d="M394.86,598.06 C431.16,589.45 471.43,578.13 507,564 C544.06,549.28 578.4541,529.275 604.7841,512.565 " fill="none" id="Batch-to-Students" style="stroke:#008080;stroke-width:1.0;stroke-dasharray:7.0,7.0;"/><polygon fill="#008080" points="609.85,509.35,600.1078,510.7953,605.6284,512.0292,604.3945,517.5498,609.85,509.35" style="stroke:#008080;stroke-width:1.0;"/><text fill="#008080" font-family="sans-serif" font-size="12" lengthAdjust="spacing" textLength="50" x="450" y="554.8281">&#171;extend&#187;</text></g><!--link Batch to Teachers--><g id="link_Batch_Teachers"><path d="M407.77,630.68 C440.09,631.96 474.93,631.67 507,628 C530.52,625.3 550.102,621.4463 572.372,615.9963 " fill="none" id="Batch-to-Teachers" style="stroke:#008080;stroke-width:1.0;stroke-dasharray:7.0,7.0;"/><polygon fill="#008080" points="578.2,614.57,568.5071,612.824,573.3433,615.7585,570.4088,620.5947,578.2,614.57" style="stroke:#008080;stroke-width:1.0;"/><text fill="#008080" font-family="sans-serif" font-size="12" lengthAdjust="spacing" textLength="50" x="450" y="618.8281">&#171;extend&#187;</text></g><!--link Admin to Dashboard--><g id="link_Admin_Dashboard"><path d="M55.82,277.89 C65.33,231.99 87.04,160.38 134,119 C149.87,105.01 164.3145,97.4117 184.6945,91.1517 " fill="none" id="Admin-to-Dashboard" style="stroke:#008080;stroke-width:1.0;"/><polygon fill="#008080" points="190.43,89.39,180.6522,88.2089,185.6504,90.8581,183.0012,95.8563,190.43,89.39" style="stroke:#008080;stroke-width:1.0;"/></g><!--link Admin to Depts--><g id="link_Admin_Depts"><path d="M69.74,277.99 C84.32,252.09 106.17,220.46 134,201 C152.75,187.89 169.7343,180.5491 191.8343,174.4791 " fill="none" id="Admin-to-Depts" style="stroke:#008080;stroke-width:1.0;"/><polygon fill="#008080" points="197.62,172.89,187.882,171.4165,192.7986,174.2143,190.0008,179.1308,197.62,172.89" style="stroke:#008080;stroke-width:1.0;"/></g><!--link Admin to Majors--><g id="link_Admin_Majors"><path d="M95.12,297.45 C107.55,291.62 121.13,285.7 134,281 C159.78,271.6 182.9549,264.8382 208.5649,258.3282 " fill="none" id="Admin-to-Majors" style="stroke:#008080;stroke-width:1.0;"/><polygon fill="#008080" points="214.38,256.85,204.6719,255.1906,209.5341,258.0818,206.6429,262.944,214.38,256.85" style="stroke:#008080;stroke-width:1.0;"/></g><!--link Admin to Levels--><g id="link_Admin_Levels"><path d="M95.25,321 C120.56,321 146.98,321 177.8,321 " fill="none" id="Admin-to-Levels" style="stroke:#008080;stroke-width:1.0;"/><polygon fill="#008080" points="183.8,321,174.8,317,178.8,321,174.8,325,183.8,321" style="stroke:#008080;stroke-width:1.0;"/></g><!--link Admin to Audit--><g id="link_Admin_Audit"><path d="M95.16,344.44 C107.59,350.28 121.16,356.23 134,361 C158.54,370.12 180.1695,376.7685 204.8195,383.4585 " fill="none" id="Admin-to-Audit" style="stroke:#008080;stroke-width:1.0;"/><polygon fill="#008080" points="210.61,385.03,202.9719,378.8123,205.7846,383.7204,200.8765,386.533,210.61,385.03" style="stroke:#008080;stroke-width:1.0;"/></g><!--link Admin to Import--><g id="link_Admin_Import"><path d="M69.98,364.16 C84.72,390.6 106.66,423.39 134,445 C154.54,461.23 174.5124,471.2964 198.7524,480.1264 " fill="none" id="Admin-to-Import" style="stroke:#008080;stroke-width:1.0;"/><polygon fill="#008080" points="204.39,482.18,197.3027,475.3411,199.692,480.4686,194.5645,482.858,204.39,482.18" style="stroke:#008080;stroke-width:1.0;"/></g><!--link Admin to Batch--><g id="link_Admin_Batch"><path d="M53.39,364.42 C60.95,417.42 81.14,506.67 134,561 C147.86,575.25 160.1253,583.6273 178.5453,591.7973 " fill="none" id="Admin-to-Batch" style="stroke:#008080;stroke-width:1.0;"/><polygon fill="#008080" points="184.03,594.23,177.4247,586.9245,179.4594,592.2028,174.1811,594.2374,184.03,594.23" style="stroke:#008080;stroke-width:1.0;"/></g><!--SRC=[VPFDRjim3CVlUWekbsx0aWSeYW1TLnG3raktuowCHSSgPCaGgI90iVTPdiClDbboucIPuujC-lUd-EKFnbKsQe8kjdOf3RMqx6fQ3QQoL0k8Xs2sZO0sWIentYc5bVW0YtlT6cTO0Wh5i01ao2wb1XBTrX8idhsEwJnXKuW5l2j8JsIga1Fru1r7AnH0S6C98wISDZxe7FKhShFn6FIvwAdVXwImnA3xVOT1KlfEk6Ye4vxb6MqwClZYVJiFzdk9sk0Xweza3LVCykIOpDOT1Jy9guR2lA3ogKhZSWkBv67my4L_QhED1r5jhEd_XB62PtpruRh0cRVKr5t6lzCRMPxh_wkFmIKKz0scogMCTNXJvv9lRUV3e207BJBJB_VnSLUH_PGbvVEvv3xl3qCQ5LWld1GSkoxLmSd_6KA_nxeUTcVWIfmlA5LJhYuXORLQ7-S0jt1tD-xmUlqlTMZ-TQhq-pgJb-G_ICxkCYFQ2JbzmPpbSsH-AvN_3bWkroUhVkBBgppPuxmdnpZHoL7cDTdZC2P7pkal]--></g></svg>