<?xml version="1.0" encoding="UTF-8" standalone="no"?><svg xmlns="http://www.w3.org/2000/svg" xmlns:xlink="http://www.w3.org/1999/xlink" contentScriptType="application/ecmascript" contentStyleType="text/css" height="1137px" preserveAspectRatio="none" style="width:918px;height:1137px;" version="1.1" viewBox="0 0 918 1137" width="918px" zoomAndPan="magnify"><defs/><g><!--MD5=[4a3f0b5a9489c88fac49dda9e61951db]
cluster Gestion des données--><rect fill="#FFFFFF" height="443" rx="4" ry="4" style="stroke: #008080; stroke-width: 1.5;" width="204" x="137" y="24"/><text fill="#000000" font-family="sans-serif" font-size="12" font-weight="bold" lengthAdjust="spacingAndGlyphs" textLength="124" x="177" y="43.8281">Gestion des données</text><!--MD5=[4d428a26167b45bd8fabce403b1e13ef]
cluster Planification--><rect fill="#FFFFFF" height="397" rx="4" ry="4" style="stroke: #008080; stroke-width: 1.5;" width="470" x="437" y="390"/><text fill="#000000" font-family="sans-serif" font-size="12" font-weight="bold" lengthAdjust="spacingAndGlyphs" textLength="77" x="633.5" y="409.8281">Planification</text><!--MD5=[7b59c258a2ae8cf08c9068df5aecdfa9]
cluster Édition documentaire--><rect fill="#FFFFFF" height="375" rx="4" ry="4" style="stroke: #008080; stroke-width: 1.5;" width="198" x="140" y="751"/><text fill="#000000" font-family="sans-serif" font-size="12" font-weight="bold" lengthAdjust="spacingAndGlyphs" textLength="130" x="174" y="770.8281">Édition documentaire</text><ellipse cx="239.2215" cy="89.1443" fill="#F8F9FA" rx="86.2215" ry="19.6443" style="stroke: #008080; stroke-width: 1.5;"/><text fill="#000000" font-family="sans-serif" font-size="12" lengthAdjust="spacingAndGlyphs" textLength="145" x="166.7215" y="93.8164">Consulter tableau de bord</text><ellipse cx="239.0069" cy="160.9404" fill="#F8F9FA" rx="60.0069" ry="17.4404" style="stroke: #008080; stroke-width: 1.5;"/><text fill="#000000" font-family="sans-serif" font-size="12" lengthAdjust="spacingAndGlyphs" textLength="94" x="192.0069" y="165.6124">Gérer les projets</text><ellipse cx="239.094" cy="245.9741" fill="#F8F9FA" rx="65.094" ry="32.4741" style="stroke: #008080; stroke-width: 1.5;"/><text fill="#000000" font-family="sans-serif" font-size="12" lengthAdjust="spacingAndGlyphs" textLength="101" x="188.594" y="241.6682">Gérer les groupes</text><text fill="#000000" font-family="sans-serif" font-size="12" lengthAdjust="spacingAndGlyphs" textLength="62" x="208.094" y="268.0123">d'étudiants</text><ellipse cx="239.149" cy="331.0566" fill="#F8F9FA" rx="67.649" ry="17.5566" style="stroke: #008080; stroke-width: 1.5;"/><text fill="#000000" font-family="sans-serif" font-size="12" lengthAdjust="spacingAndGlyphs" textLength="107" x="185.649" y="335.7287">Constituer les jurys</text><ellipse cx="239" cy="417.0405" fill="#F8F9FA" rx="68.5" ry="33.5405" style="stroke: #008080; stroke-width: 1.5;"/><text fill="#000000" font-family="sans-serif" font-size="12" lengthAdjust="spacingAndGlyphs" textLength="103" x="187.5" y="411.0138">Gérer les sessions</text><text fill="#000000" font-family="sans-serif" font-size="12" lengthAdjust="spacingAndGlyphs" textLength="82" x="198" y="437.3579">de soutenance</text><ellipse cx="544.4416" cy="468.2132" fill="#F8F9FA" rx="88.4416" ry="33.2132" style="stroke: #008080; stroke-width: 1.5;"/><text fill="#000000" font-family="sans-serif" font-size="12" lengthAdjust="spacingAndGlyphs" textLength="139" x="474.9416" y="463.483">Planifier les soutenances</text><text fill="#000000" font-family="sans-serif" font-size="12" lengthAdjust="spacingAndGlyphs" textLength="95" x="496.9416" y="489.8272">(glisser-déposer)</text><ellipse cx="544.3554" cy="568.0956" fill="#F8F9FA" rx="91.3554" ry="32.0956" style="stroke: #008080; stroke-width: 1.5;"/><text fill="#000000" font-family="sans-serif" font-size="12" lengthAdjust="spacingAndGlyphs" textLength="150" x="469.3554" y="565.5585">Générer automatiquement</text><text fill="#000000" font-family="sans-serif" font-size="12" lengthAdjust="spacingAndGlyphs" textLength="61" x="513.8554" y="591.9026">le planning</text><ellipse cx="544.2974" cy="653.0236" fill="#F8F9FA" rx="65.2974" ry="17.5236" style="stroke: #008080; stroke-width: 1.5;"/><text fill="#000000" font-family="sans-serif" font-size="12" lengthAdjust="spacingAndGlyphs" textLength="103" x="492.7974" y="657.6957">Publier le planning</text><ellipse cx="825.2974" cy="518.0236" fill="#F8F9FA" rx="65.2974" ry="17.5236" style="stroke: #008080; stroke-width: 1.5;"/><text fill="#000000" font-family="sans-serif" font-size="12" lengthAdjust="spacingAndGlyphs" textLength="103" x="773.7974" y="522.6957">Vérifier les conflits</text><ellipse cx="544.5474" cy="738.0178" fill="#F8F9FA" rx="68.5474" ry="32.5178" style="stroke: #008080; stroke-width: 1.5;"/><text fill="#000000" font-family="sans-serif" font-size="12" lengthAdjust="spacingAndGlyphs" textLength="107" x="491.0474" y="733.8075">Consulter les notes</text><text fill="#000000" font-family="sans-serif" font-size="12" lengthAdjust="spacingAndGlyphs" textLength="65" x="512.0474" y="760.1517">/ moyennes</text><ellipse cx="239.0968" cy="829.8647" fill="#F8F9FA" rx="56.5968" ry="33.3647" style="stroke: #008080; stroke-width: 1.5;"/><text fill="#000000" font-family="sans-serif" font-size="12" lengthAdjust="spacingAndGlyphs" textLength="83" x="197.5968" y="823.4935">Générer fiches</text><text fill="#000000" font-family="sans-serif" font-size="12" lengthAdjust="spacingAndGlyphs" textLength="68" x="205.0968" y="849.8376">d'évaluation</text><ellipse cx="238.7854" cy="932.1571" fill="#F8F9FA" rx="54.7854" ry="33.6571" style="stroke: #008080; stroke-width: 1.5;"/><text fill="#000000" font-family="sans-serif" font-size="12" lengthAdjust="spacingAndGlyphs" textLength="79" x="199.2854" y="925.1759">Générer listes</text><text fill="#000000" font-family="sans-serif" font-size="12" lengthAdjust="spacingAndGlyphs" textLength="69" x="204.2854" y="951.5201">de présence</text><ellipse cx="238.761" cy="1019.9522" fill="#F8F9FA" rx="82.761" ry="18.9522" style="stroke: #008080; stroke-width: 1.5;"/><text fill="#000000" font-family="sans-serif" font-size="12" lengthAdjust="spacingAndGlyphs" textLength="137" x="170.261" y="1024.6243">Générer procès-verbaux</text><ellipse cx="239.1714" cy="1091.9343" fill="#F8F9FA" rx="77.6714" ry="17.9343" style="stroke: #008080; stroke-width: 1.5;"/><text fill="#000000" font-family="sans-serif" font-size="12" lengthAdjust="spacingAndGlyphs" textLength="125" x="176.6714" y="1096.6063">Générer planning final</text><!--MD5=[87cf2040e9033e55777134a3b5839dcf]
entity Coord--><ellipse cx="48" cy="540.5" fill="#F8F9FA" rx="8" ry="8" style="stroke: #008080; stroke-width: 1.5;"/><path d="M48,548.5 L48,575.5 M35,556.5 L61,556.5 M48,575.5 L35,590.5 M48,575.5 L61,590.5 " fill="none" style="stroke: #008080; stroke-width: 1.5;"/><text fill="#000000" font-family="sans-serif" font-size="12" lengthAdjust="spacingAndGlyphs" textLength="74" x="11" y="610.8281">Coordinateur</text><!--MD5=[181e028e69a322dd7875d02827253c30]
link Planner to Conflicts--><path d="M624.7,482.19 C669.6,490.24 724.81,500.13 765.81,507.48 " fill="none" id="Planner-&gt;Conflicts" style="stroke: #008080; stroke-width: 1.0; stroke-dasharray: 7.0,7.0;"/><polygon fill="#008080" points="770.74,508.37,762.5739,502.8641,765.8164,507.4994,761.181,510.7419,770.74,508.37" style="stroke: #008080; stroke-width: 1.0;"/><text fill="#008080" font-family="sans-serif" font-size="12" lengthAdjust="spacingAndGlyphs" textLength="52" x="672" y="481.8281">«include»</text><!--MD5=[46adfce134593c5c01c791cfe609fe48]
link Sessions to Planner--><path d="M303.99,427.75 C348.97,435.31 409.62,445.5 458.63,453.74 " fill="none" id="Sessions-&gt;Planner" style="stroke: #008080; stroke-width: 1.0; stroke-dasharray: 7.0,7.0;"/><polygon fill="#008080" points="463.64,454.58,455.4277,449.1433,458.7092,453.7511,454.1014,457.0325,463.64,454.58" style="stroke: #008080; stroke-width: 1.0;"/><text fill="#008080" font-family="sans-serif" font-size="12" lengthAdjust="spacingAndGlyphs" textLength="52" x="363" y="428.8281">«include»</text><!--MD5=[b47807dc9191619df0a593ddfb58448f]
link AutoGen to Conflicts--><path d="M627.8,554.75 C659.75,549.45 696.62,543.16 730,537 C742.35,534.72 755.58,532.15 768.11,529.64 " fill="none" id="AutoGen-&gt;Conflicts" style="stroke: #008080; stroke-width: 1.0; stroke-dasharray: 7.0,7.0;"/><polygon fill="#008080" points="773.06,528.65,763.4479,526.5035,768.1582,529.6361,765.0256,534.3464,773.06,528.65" style="stroke: #008080; stroke-width: 1.0;"/><text fill="#008080" font-family="sans-serif" font-size="12" lengthAdjust="spacingAndGlyphs" textLength="52" x="672" y="527.8281">«include»</text><!--MD5=[5d32b28c34301407bd68a922a9898082]
link GenFiches to Grades--><path d="M289.78,814.91 C342.18,799.03 424.77,773.99 481.4,756.82 " fill="none" id="GenFiches-&gt;Grades" style="stroke: #008080; stroke-width: 1.0; stroke-dasharray: 7.0,7.0;"/><polygon fill="#008080" points="486.45,755.29,476.6751,754.0849,481.6668,756.7464,479.0053,761.738,486.45,755.29" style="stroke: #008080; stroke-width: 1.0;"/><text fill="#008080" font-family="sans-serif" font-size="12" lengthAdjust="spacingAndGlyphs" textLength="52" x="363" y="765.8281">«include»</text><!--MD5=[3609a42fbab85ad6ea766db02af48b01]
link Coord to Dashboard--><path d="M51.26,530.84 C57.3,429.93 77.01,186.5 129,126 C138.22,115.27 150.68,107.64 163.88,102.23 " fill="none" id="Coord-&gt;Dashboard" style="stroke: #008080; stroke-width: 1.0;"/><polygon fill="#008080" points="168.77,100.33,158.9332,99.8436,164.1062,102.1326,161.8173,107.3056,168.77,100.33" style="stroke: #008080; stroke-width: 1.0;"/><!--MD5=[a4dde37469308b12c8c2b343e7677a2a]
link Coord to Projects--><path d="M52.82,530.71 C61.35,441.6 84.8,244.99 129,196 C141.6,182.04 159.77,173.62 177.68,168.55 " fill="none" id="Coord-&gt;Projects" style="stroke: #008080; stroke-width: 1.0;"/><polygon fill="#008080" points="182.71,167.2,172.9838,165.6504,177.8784,168.4865,175.0423,173.3811,182.71,167.2" style="stroke: #008080; stroke-width: 1.0;"/><!--MD5=[f199dfcbce92a3a98accd8e34211a5f2]
link Coord to Groups--><path d="M50.56,530.76 C54.92,470.82 70.95,363.54 129,296 C141.53,281.42 159.2,270.86 176.67,263.31 " fill="none" id="Coord-&gt;Groups" style="stroke: #008080; stroke-width: 1.0;"/><polygon fill="#008080" points="181.59,261.25,171.7442,261.0041,176.9717,263.166,174.8098,268.3934,181.59,261.25" style="stroke: #008080; stroke-width: 1.0;"/><!--MD5=[e46ffc2ce4ab0dc001cde38552f18fe7]
link Coord to Juries--><path d="M54.57,530.83 C62.79,483.7 82.58,409.94 129,366 C141.56,354.11 158.17,346.26 174.63,341.08 " fill="none" id="Coord-&gt;Juries" style="stroke: #008080; stroke-width: 1.0;"/><polygon fill="#008080" points="179.73,339.55,169.9585,338.3182,174.9428,340.9933,172.2677,345.9777,179.73,339.55" style="stroke: #008080; stroke-width: 1.0;"/><!--MD5=[c0e312e3579699055dfe17b39556375d]
link Coord to Sessions--><path d="M74.92,530.9 C87,512.94 102.56,492.93 120,478 C137.83,462.73 160.14,449.96 180.55,440.12 " fill="none" id="Coord-&gt;Sessions" style="stroke: #008080; stroke-width: 1.0;"/><polygon fill="#008080" points="185.14,437.93,175.2942,438.1759,180.6231,440.0741,178.7248,445.403,185.14,437.93" style="stroke: #008080; stroke-width: 1.0;"/><!--MD5=[e6bf6c021926fa8719643d83de11cc72]
link Coord to Planner--><path d="M90.26,557.9 C99.91,554.3 110.23,550.76 120,548 C234.2,515.77 369.44,492.77 455.82,479.94 " fill="none" id="Coord-&gt;Planner" style="stroke: #008080; stroke-width: 1.0;"/><polygon fill="#008080" points="460.92,479.18,451.4329,476.5352,455.9734,479.9091,452.5995,484.4497,460.92,479.18" style="stroke: #008080; stroke-width: 1.0;"/><!--MD5=[0ee0d0eb60bf8e6f71510585b985954e]
link Coord to AutoGen--><path d="M90.31,574.42 C168.46,573.31 339.77,570.88 447.95,569.35 " fill="none" id="Coord-&gt;AutoGen" style="stroke: #008080; stroke-width: 1.0;"/><polygon fill="#008080" points="453.05,569.28,443.9938,565.409,448.0505,569.3514,444.1081,573.4082,453.05,569.28" style="stroke: #008080; stroke-width: 1.0;"/><!--MD5=[988dee94c267ce8dfbff185426515e6e]
link Coord to Publish--><path d="M90.31,581.52 C177.51,595.27 380.72,627.32 482.76,643.42 " fill="none" id="Coord-&gt;Publish" style="stroke: #008080; stroke-width: 1.0;"/><polygon fill="#008080" points="487.84,644.22,479.5645,638.88,482.8998,643.449,478.3308,646.7843,487.84,644.22" style="stroke: #008080; stroke-width: 1.0;"/><!--MD5=[fecf99a1f2316700ed947c299efdb33d]
link Coord to Grades--><path d="M90.12,607.29 C102.15,615.6 115.66,623.91 129,630 C244.23,682.65 389.65,713.05 474.06,727.5 " fill="none" id="Coord-&gt;Grades" style="stroke: #008080; stroke-width: 1.0;"/><polygon fill="#008080" points="479.03,728.35,470.8331,722.8901,474.1015,727.5072,469.4845,730.7757,479.03,728.35" style="stroke: #008080; stroke-width: 1.0;"/><!--MD5=[434b399cbd02f9e43295b82e5d9a6bd2]
link Coord to GenFiches--><path d="M60.53,619.1 C71.53,655.12 90.79,705.95 120,743 C139.73,768.02 168.39,789.38 192.52,804.67 " fill="none" id="Coord-&gt;GenFiches" style="stroke: #008080; stroke-width: 1.0;"/><polygon fill="#008080" points="196.97,807.46,191.4654,799.293,192.7324,804.8062,187.2193,806.0732,196.97,807.46" style="stroke: #008080; stroke-width: 1.0;"/><!--MD5=[13276ae920c7c2f0c59429f88e2d7e29]
link Coord to GenPres--><path d="M49.21,619.01 C51.78,683.62 65.48,804.73 129,881 C142.93,897.72 163.57,909.28 183.15,917.11 " fill="none" id="Coord-&gt;GenPres" style="stroke: #008080; stroke-width: 1.0;"/><polygon fill="#008080" points="188.11,919.02,181.1573,912.0444,183.4462,917.2174,178.2732,919.5064,188.11,919.02" style="stroke: #008080; stroke-width: 1.0;"/><!--MD5=[fb85beb313bcedfe0ada0108e0aa72e1]
link Coord to GenPV--><path d="M52.16,619.34 C59.72,713.47 81.84,929.07 129,983 C138.75,994.15 151.99,1001.94 165.89,1007.39 " fill="none" id="Coord-&gt;GenPV" style="stroke: #008080; stroke-width: 1.0;"/><polygon fill="#008080" points="170.62,1009.15,163.5791,1002.2634,165.9337,1007.4069,160.7901,1009.7615,170.62,1009.15" style="stroke: #008080; stroke-width: 1.0;"/><!--MD5=[900f2e18ad19293aeab63edfb75a5514]
link Coord to GenPlanning--><path d="M50.6,619.26 C55.31,725.63 72.59,991.67 129,1057 C138.86,1068.42 152.46,1076.15 166.71,1081.36 " fill="none" id="Coord-&gt;GenPlanning" style="stroke: #008080; stroke-width: 1.0;"/><polygon fill="#008080" points="171.57,1083.04,164.3631,1076.3273,166.8425,1081.4118,161.758,1083.8912,171.57,1083.04" style="stroke: #008080; stroke-width: 1.0;"/><!--MD5=[1443655f31bebb00f7c5a9e55596363c]
@startuml

skinparam shadowing false
skinparam roundcorner 8
skinparam Padding 5
skinparam defaultFontName "SansSerif"
skinparam defaultFontSize 12

skinparam ActivityBackgroundColor #F8F9FA
skinparam ActivityBorderColor #008080
skinparam ActivityDiamondBackgroundColor #E67E22
skinparam ActivityDiamondBorderColor #E67E22
skinparam ActivityDiamondFontColor #FFFFFF

skinparam ActorBackgroundColor #F8F9FA
skinparam ActorBorderColor #008080

skinparam ClassBackgroundColor #F8F9FA
skinparam ClassBorderColor #008080
skinparam ClassHeaderBackgroundColor #008080
skinparam ClassAttributeIconSize 0

skinparam ComponentBackgroundColor #F8F9FA
skinparam ComponentBorderColor #008080

skinparam DatabaseBackgroundColor #F8F9FA
skinparam DatabaseBorderColor #008080

skinparam NoteBackgroundColor #FFF2E6
skinparam NoteBorderColor #E67E22

skinparam StateBackgroundColor #F8F9FA
skinparam StateBorderColor #008080

skinparam UsecaseBackgroundColor #F8F9FA
skinparam UsecaseBorderColor #008080

skinparam SequenceGroupBackgroundColor #F8F9FA
skinparam SequenceGroupBorderColor #008080
skinparam SequenceLifeLineBorderColor #008080
skinparam SequenceParticipantBackgroundColor #F8F9FA
skinparam SequenceParticipantBorderColor #008080
skinparam ControlBackgroundColor #F8F9FA
skinparam ControlBorderColor #008080
skinparam BoundaryBackgroundColor #F8F9FA
skinparam BoundaryBorderColor #008080
skinparam EntityBackgroundColor #F8F9FA
skinparam EntityBorderColor #008080

skinparam ArrowColor #008080
skinparam ArrowFontColor #008080

skinparam PackageBackgroundColor #FFFFFF
skinparam PackageBorderColor #008080
left to right direction

actor "Coordinateur" as Coord

rectangle "Gestion des données" {
    usecase "Consulter tableau de bord" as Dashboard
    usecase "Gérer les projets" as Projects
    usecase "Gérer les groupes\nd'étudiants" as Groups
    usecase "Constituer les jurys" as Juries
    usecase "Gérer les sessions\nde soutenance" as Sessions
}

rectangle "Planification" {
    usecase "Planifier les soutenances\n(glisser-déposer)" as Planner
    usecase "Générer automatiquement\nle planning" as AutoGen
    usecase "Publier le planning" as Publish
    usecase "Vérifier les conflits" as Conflicts
    usecase "Consulter les notes\n/ moyennes" as Grades
}

rectangle "Édition documentaire" {
    usecase "Générer fiches\nd'évaluation" as GenFiches
    usecase "Générer listes\nde présence" as GenPres
    usecase "Générer procès-verbaux" as GenPV
    usecase "Générer planning final" as GenPlanning
}

Planner ..> Conflicts : <<include>>
Sessions ..> Planner : <<include>>
AutoGen ..> Conflicts : <<include>>
GenFiches ..> Grades : <<include>>

Coord - -> Dashboard
Coord - -> Projects
Coord - -> Groups
Coord - -> Juries
Coord - -> Sessions
Coord - -> Planner
Coord - -> AutoGen
Coord - -> Publish
Coord - -> Grades
Coord - -> GenFiches
Coord - -> GenPres
Coord - -> GenPV
Coord - -> GenPlanning
@enduml

PlantUML version 1.2020.02(Sun Mar 01 11:22:07 WEST 2020)
(GPL source distribution)
Java Runtime: OpenJDK Runtime Environment
JVM: OpenJDK 64-Bit Server VM
Java Version: 21.0.11+10-1-24.04.2-Ubuntu
Operating System: Linux
Default Encoding: UTF-8
Language: en
Country: US
--></g></svg>